<?xml version="1.0" encoding="UTF-8" standalone="no"?>
<!DOCTYPE svg PUBLIC "-//W3C//DTD SVG 1.1//EN"
 "http://www.w3.org/Graphics/SVG/1.1/DTD/svg11.dtd">
<!-- Generated by graphviz version 2.42.4 (0)
 -->
<!-- Title: CTFForge_ERD Pages: 1 -->
<svg width="1755pt" height="1792pt"
 viewBox="0.00 0.00 1754.60 1791.60" xmlns="http://www.w3.org/2000/svg" xmlns:xlink="http://www.w3.org/1999/xlink">
<g id="graph0" class="graph" transform="scale(1 1) rotate(0) translate(28.8 1762.8)">
<title>CTFForge_ERD</title>
<polygon fill="white" stroke="transparent" points="-28.8,28.8 -28.8,-1762.8 1725.8,-1762.8 1725.8,28.8 -28.8,28.8"/>
<text text-anchor="middle" x="848.5" y="-1712.4" font-family="Inter, Arial" font-size="22.00" fill="#111827">Entity Relationship Diagram — CTFForge Final v3</text>
<!-- users -->
<g id="node1" class="node">
<title>users</title>
<polygon fill="#dff6ef" stroke="transparent" points="1.5,-851 1.5,-878 136.5,-878 136.5,-851 1.5,-851"/>
<text text-anchor="start" x="49.5" y="-861.8" font-family="Inter, Arial" font-weight="bold" font-size="14.00" fill="#111827">users</text>
<text text-anchor="start" x="7.5" y="-837" font-family="Inter, Arial" font-size="10.00" fill="#111827">PK id UUID</text>
<text text-anchor="start" x="7.5" y="-814" font-family="Inter, Arial" font-size="10.00" fill="#111827">name, email UNIQUE</text>
<text text-anchor="start" x="7.5" y="-791" font-family="Inter, Arial" font-size="10.00" fill="#111827">password_hash</text>
<text text-anchor="start" x="7.5" y="-768" font-family="Inter, Arial" font-size="10.00" fill="#111827">role: user/admin/reviewer</text>
<text text-anchor="start" x="7.5" y="-745" font-family="Inter, Arial" font-size="10.00" fill="#111827">total_point</text>
<text text-anchor="start" x="7.5" y="-722" font-family="Inter, Arial" font-size="10.00" fill="#111827">is_active</text>
<text text-anchor="start" x="7.5" y="-699" font-family="Inter, Arial" font-size="10.00" fill="#111827">created_at, updated_at</text>
<polygon fill="none" stroke="#9ca3af" points="0,-689 0,-879 137,-879 137,-689 0,-689"/>
</g>
<!-- courses -->
<g id="node2" class="node">
<title>courses</title>
<polygon fill="#e0f2fe" stroke="transparent" points="299,-1331 299,-1358 433,-1358 433,-1331 299,-1331"/>
<text text-anchor="start" x="338.5" y="-1341.8" font-family="Inter, Arial" font-weight="bold" font-size="14.00" fill="#111827">courses</text>
<text text-anchor="start" x="305" y="-1317" font-family="Inter, Arial" font-size="10.00" fill="#111827">PK id UUID</text>
<text text-anchor="start" x="305" y="-1294" font-family="Inter, Arial" font-size="10.00" fill="#111827">title, description</text>
<text text-anchor="start" x="305" y="-1271" font-family="Inter, Arial" font-size="10.00" fill="#111827">level</text>
<text text-anchor="start" x="305" y="-1248" font-family="Inter, Arial" font-size="10.00" fill="#111827">is_published</text>
<text text-anchor="start" x="305" y="-1225" font-family="Inter, Arial" font-size="10.00" fill="#111827">FK created_by → users.id</text>
<text text-anchor="start" x="305" y="-1202" font-family="Inter, Arial" font-size="10.00" fill="#111827">created_at, updated_at</text>
<polygon fill="none" stroke="#9ca3af" points="298,-1192.5 298,-1359.5 434,-1359.5 434,-1192.5 298,-1192.5"/>
</g>
<!-- users&#45;&gt;courses -->
<g id="edge1" class="edge">
<title>users&#45;&gt;courses</title>
<path fill="none" stroke="#4b5563" d="M103,-879.15C103,-1022.18 103,-1276 103,-1276 103,-1276 290.93,-1276 290.93,-1276"/>
<polygon fill="#4b5563" stroke="#4b5563" points="290.93,-1278.45 297.93,-1276 290.93,-1273.55 290.93,-1278.45"/>
<text text-anchor="middle" x="197" y="-1157" font-family="Inter, Arial" font-size="10.00">creates</text>
<text text-anchor="middle" x="286.15" y="-1278.99" font-family="Inter, Arial" font-size="10.00">N</text>
<text text-anchor="middle" x="108.49" y="-888.44" font-family="Inter, Arial" font-size="10.00">1</text>
</g>
<!-- course_progress -->
<g id="node5" class="node">
<title>course_progress</title>
<polygon fill="#ecfdf5" stroke="transparent" points="1242.5,-1438 1242.5,-1465 1386.5,-1465 1386.5,-1438 1242.5,-1438"/>
<text text-anchor="start" x="1257" y="-1448.8" font-family="Inter, Arial" font-weight="bold" font-size="14.00" fill="#111827">course_progress</text>
<text text-anchor="start" x="1248.5" y="-1424" font-family="Inter, Arial" font-size="10.00" fill="#111827">PK id UUID</text>
<text text-anchor="start" x="1248.5" y="-1401" font-family="Inter, Arial" font-size="10.00" fill="#111827">FK user_id → users.id</text>
<text text-anchor="start" x="1248.5" y="-1378" font-family="Inter, Arial" font-size="10.00" fill="#111827">FK lesson_id → lessons.id</text>
<text text-anchor="start" x="1248.5" y="-1355" font-family="Inter, Arial" font-size="10.00" fill="#111827">is_completed</text>
<text text-anchor="start" x="1248.5" y="-1332" font-family="Inter, Arial" font-size="10.00" fill="#111827">completed_at</text>
<text text-anchor="start" x="1248.5" y="-1309" font-family="Inter, Arial" font-size="10.00" fill="#111827">UNIQUE(user_id, lesson_id)</text>
<polygon fill="none" stroke="#9ca3af" points="1241.5,-1299.5 1241.5,-1466.5 1387.5,-1466.5 1387.5,-1299.5 1241.5,-1299.5"/>
</g>
<!-- users&#45;&gt;course_progress -->
<g id="edge5" class="edge">
<title>users&#45;&gt;course_progress</title>
<path fill="none" stroke="#4b5563" d="M69,-879.19C69,-1055.03 69,-1413 69,-1413 69,-1413 1234.24,-1413 1234.24,-1413"/>
<polygon fill="#4b5563" stroke="#4b5563" points="1234.24,-1415.45 1241.24,-1413 1234.24,-1410.55 1234.24,-1415.45"/>
<text text-anchor="middle" x="696" y="-1439" font-family="Inter, Arial" font-size="10.00">has</text>
<text text-anchor="middle" x="1229.46" y="-1415.99" font-family="Inter, Arial" font-size="10.00">N</text>
<text text-anchor="middle" x="74.49" y="-888.47" font-family="Inter, Arial" font-size="10.00">1</text>
</g>
<!-- challenges -->
<g id="node6" class="node">
<title>challenges</title>
<polygon fill="#fef3c7" stroke="transparent" points="1228.5,-954 1228.5,-981 1401.5,-981 1401.5,-954 1228.5,-954"/>
<text text-anchor="start" x="1277" y="-964.8" font-family="Inter, Arial" font-weight="bold" font-size="14.00" fill="#111827">challenges</text>
<text text-anchor="start" x="1234.5" y="-940" font-family="Inter, Arial" font-size="10.00" fill="#111827">PK id UUID</text>
<text text-anchor="start" x="1234.5" y="-917" font-family="Inter, Arial" font-size="10.00" fill="#111827">title, description</text>
<text text-anchor="start" x="1234.5" y="-894" font-family="Inter, Arial" font-size="10.00" fill="#111827">category, difficulty</text>
<text text-anchor="start" x="1234.5" y="-871" font-family="Inter, Arial" font-size="10.00" fill="#111827">point</text>
<text text-anchor="start" x="1234.5" y="-848" font-family="Inter, Arial" font-size="10.00" fill="#111827">flag_hash</text>
<text text-anchor="start" x="1234.5" y="-825" font-family="Inter, Arial" font-size="10.00" fill="#111827">hint, solution</text>
<text text-anchor="start" x="1234.5" y="-802" font-family="Inter, Arial" font-size="10.00" fill="#111827">attachment_url, lab_url</text>
<text text-anchor="start" x="1234.5" y="-779" font-family="Inter, Arial" font-size="10.00" fill="#111827">FK related_lesson_id → lessons.id</text>
<text text-anchor="start" x="1234.5" y="-756" font-family="Inter, Arial" font-size="10.00" fill="#111827">FK created_by → users.id</text>
<polygon fill="none" stroke="#9ca3af" points="1227,-746 1227,-982 1402,-982 1402,-746 1227,-746"/>
</g>
<!-- users&#45;&gt;challenges -->
<g id="edge2" class="edge">
<title>users&#45;&gt;challenges</title>
<path fill="none" stroke="#4b5563" d="M137.27,-803C137.27,-803 1219.97,-803 1219.97,-803"/>
<polygon fill="#4b5563" stroke="#4b5563" points="1219.97,-805.45 1226.97,-803 1219.97,-800.55 1219.97,-805.45"/>
<text text-anchor="middle" x="696" y="-787" font-family="Inter, Arial" font-size="10.00">creates</text>
<text text-anchor="middle" x="1215.19" y="-805.99" font-family="Inter, Arial" font-size="10.00">N</text>
<text text-anchor="middle" x="149.05" y="-795.01" font-family="Inter, Arial" font-size="10.00">1</text>
</g>
<!-- challenge_submissions -->
<g id="node7" class="node">
<title>challenge_submissions</title>
<polygon fill="#fef3c7" stroke="transparent" points="1516,-327 1516,-354 1688,-354 1688,-327 1516,-327"/>
<text text-anchor="start" x="1522" y="-337.8" font-family="Inter, Arial" font-weight="bold" font-size="14.00" fill="#111827">challenge_submissions</text>
<text text-anchor="start" x="1522" y="-313" font-family="Inter, Arial" font-size="10.00" fill="#111827">PK id UUID</text>
<text text-anchor="start" x="1522" y="-290" font-family="Inter, Arial" font-size="10.00" fill="#111827">FK user_id → users.id</text>
<text text-anchor="start" x="1522" y="-267" font-family="Inter, Arial" font-size="10.00" fill="#111827">FK challenge_id → challenges.id</text>
<text text-anchor="start" x="1522" y="-244" font-family="Inter, Arial" font-size="10.00" fill="#111827">submitted_flag</text>
<text text-anchor="start" x="1522" y="-221" font-family="Inter, Arial" font-size="10.00" fill="#111827">status: correct/incorrect</text>
<text text-anchor="start" x="1522" y="-198" font-family="Inter, Arial" font-size="10.00" fill="#111827">point_earned</text>
<text text-anchor="start" x="1522" y="-175" font-family="Inter, Arial" font-size="10.00" fill="#111827">partial UNIQUE solved challenge</text>
<polygon fill="none" stroke="#9ca3af" points="1515,-165 1515,-355 1689,-355 1689,-165 1515,-165"/>
</g>
<!-- users&#45;&gt;challenge_submissions -->
<g id="edge6" class="edge">
<title>users&#45;&gt;challenge_submissions</title>
<path fill="none" stroke="#4b5563" d="M119,-688.79C119,-530 119,-228.33 119,-228.33 119,-228.33 1507.77,-228.33 1507.77,-228.33"/>
<polygon fill="#4b5563" stroke="#4b5563" points="1507.77,-230.78 1514.77,-228.33 1507.77,-225.88 1507.77,-230.78"/>
<text text-anchor="middle" x="869" y="-223" font-family="Inter, Arial" font-size="10.00">submits</text>
<text text-anchor="middle" x="1502.99" y="-231.33" font-family="Inter, Arial" font-size="10.00">N</text>
<text text-anchor="middle" x="113.51" y="-674.51" font-family="Inter, Arial" font-size="10.00">1</text>
</g>
<!-- bug_bounty_programs -->
<g id="node8" class="node">
<title>bug_bounty_programs</title>
<polygon fill="#ffe4e6" stroke="transparent" points="282,-569 282,-596 450,-596 450,-569 282,-569"/>
<text text-anchor="start" x="288" y="-579.8" font-family="Inter, Arial" font-weight="bold" font-size="14.00" fill="#111827">bug_bounty_programs</text>
<text text-anchor="start" x="288" y="-555" font-family="Inter, Arial" font-size="10.00" fill="#111827">PK id UUID</text>
<text text-anchor="start" x="288" y="-532" font-family="Inter, Arial" font-size="10.00" fill="#111827">title, description</text>
<text text-anchor="start" x="288" y="-509" font-family="Inter, Arial" font-size="10.00" fill="#111827">scope, out_of_scope</text>
<text text-anchor="start" x="288" y="-486" font-family="Inter, Arial" font-size="10.00" fill="#111827">lab_url</text>
<text text-anchor="start" x="288" y="-463" font-family="Inter, Arial" font-size="10.00" fill="#111827">reward_point</text>
<text text-anchor="start" x="288" y="-440" font-family="Inter, Arial" font-size="10.00" fill="#111827">is_active</text>
<text text-anchor="start" x="288" y="-417" font-family="Inter, Arial" font-size="10.00" fill="#111827">FK created_by → users.id</text>
<polygon fill="none" stroke="#9ca3af" points="281,-407 281,-597 451,-597 451,-407 281,-407"/>
</g>
<!-- users&#45;&gt;bug_bounty_programs -->
<g id="edge3" class="edge">
<title>users&#45;&gt;bug_bounty_programs</title>
<path fill="none" stroke="#4b5563" d="M124,-688.92C124,-607.05 124,-502 124,-502 124,-502 273.68,-502 273.68,-502"/>
<polygon fill="#4b5563" stroke="#4b5563" points="273.68,-504.45 280.68,-502 273.68,-499.55 273.68,-504.45"/>
<text text-anchor="middle" x="197" y="-581" font-family="Inter, Arial" font-size="10.00">creates</text>
<text text-anchor="middle" x="268.9" y="-504.99" font-family="Inter, Arial" font-size="10.00">N</text>
<text text-anchor="middle" x="118.51" y="-674.64" font-family="Inter, Arial" font-size="10.00">1</text>
</g>
<!-- bug_reports -->
<g id="node9" class="node">
<title>bug_reports</title>
<polygon fill="#ffe4e6" stroke="transparent" points="589,-592 589,-619 803,-619 803,-592 589,-592"/>
<text text-anchor="start" x="653.5" y="-602.8" font-family="Inter, Arial" font-weight="bold" font-size="14.00" fill="#111827">bug_reports</text>
<text text-anchor="start" x="595" y="-578" font-family="Inter, Arial" font-size="10.00" fill="#111827">PK id UUID</text>
<text text-anchor="start" x="595" y="-555" font-family="Inter, Arial" font-size="10.00" fill="#111827">FK user_id → users.id</text>
<text text-anchor="start" x="595" y="-532" font-family="Inter, Arial" font-size="10.00" fill="#111827">FK program_id → bug_bounty_programs.id</text>
<text text-anchor="start" x="595" y="-509" font-family="Inter, Arial" font-size="10.00" fill="#111827">vulnerability_type, severity</text>
<text text-anchor="start" x="595" y="-486" font-family="Inter, Arial" font-size="10.00" fill="#111827">steps_to_reproduce, impact</text>
<text text-anchor="start" x="595" y="-463" font-family="Inter, Arial" font-size="10.00" fill="#111827">evidence, evidence_url</text>
<text text-anchor="start" x="595" y="-440" font-family="Inter, Arial" font-size="10.00" fill="#111827">status</text>
<text text-anchor="start" x="595" y="-417" font-family="Inter, Arial" font-size="10.00" fill="#111827">reviewed_by, reviewer_note</text>
<text text-anchor="start" x="595" y="-394" font-family="Inter, Arial" font-size="10.00" fill="#111827">point_awarded</text>
<polygon fill="none" stroke="#9ca3af" points="588,-384 588,-620 804,-620 804,-384 588,-384"/>
</g>
<!-- users&#45;&gt;bug_reports -->
<g id="edge7" class="edge">
<title>users&#45;&gt;bug_reports</title>
<path fill="none" stroke="#4b5563" d="M128,-688.82C128,-645.9 128,-604.67 128,-604.67 128,-604.67 580.83,-604.67 580.83,-604.67"/>
<polygon fill="#4b5563" stroke="#4b5563" points="580.83,-607.12 587.83,-604.67 580.83,-602.22 580.83,-607.12"/>
<text text-anchor="middle" x="366" y="-349" font-family="Inter, Arial" font-size="10.00">writes</text>
<text text-anchor="middle" x="576.04" y="-607.66" font-family="Inter, Arial" font-size="10.00">N</text>
<text text-anchor="middle" x="122.51" y="-674.54" font-family="Inter, Arial" font-size="10.00">1</text>
</g>
<!-- users&#45;&gt;bug_reports -->
<g id="edge18" class="edge">
<title>users&#45;&gt;bug_reports</title>
<path fill="none" stroke="#9ca3af" stroke-dasharray="5,2" d="M133,-688.88C133,-649.27 133,-612.33 133,-612.33 133,-612.33 580.78,-612.33 580.78,-612.33"/>
<polygon fill="#9ca3af" stroke="#9ca3af" points="580.78,-614.78 587.78,-612.33 580.78,-609.88 580.78,-614.78"/>
<text text-anchor="middle" x="366" y="-700" font-family="Inter, Arial" font-size="10.00">reviews</text>
<text text-anchor="middle" x="583.78" y="-615.33" font-family="Inter, Arial" font-size="10.00">N</text>
<text text-anchor="middle" x="131" y="-680.88" font-family="Inter, Arial" font-size="10.00">1</text>
</g>
<!-- generated_challenge_drafts -->
<g id="node10" class="node">
<title>generated_challenge_drafts</title>
<polygon fill="#dcfce7" stroke="transparent" points="258,-1114 258,-1141 474,-1141 474,-1114 258,-1114"/>
<text text-anchor="start" x="269.5" y="-1124.8" font-family="Inter, Arial" font-weight="bold" font-size="14.00" fill="#111827">generated_challenge_drafts</text>
<text text-anchor="start" x="264" y="-1100" font-family="Inter, Arial" font-size="10.00" fill="#111827">PK id UUID</text>
<text text-anchor="start" x="264" y="-1077" font-family="Inter, Arial" font-size="10.00" fill="#111827">FK generated_by → users.id</text>
<text text-anchor="start" x="264" y="-1054" font-family="Inter, Arial" font-size="10.00" fill="#111827">prompt_input</text>
<text text-anchor="start" x="264" y="-1031" font-family="Inter, Arial" font-size="10.00" fill="#111827">category, difficulty</text>
<text text-anchor="start" x="264" y="-1008" font-family="Inter, Arial" font-size="10.00" fill="#111827">generated_title/description</text>
<text text-anchor="start" x="264" y="-985" font-family="Inter, Arial" font-size="10.00" fill="#111827">generated_hint/solution</text>
<text text-anchor="start" x="264" y="-962" font-family="Inter, Arial" font-size="10.00" fill="#111827">generated_flag_hash</text>
<text text-anchor="start" x="264" y="-939" font-family="Inter, Arial" font-size="10.00" fill="#111827">generated_point</text>
<text text-anchor="start" x="264" y="-916" font-family="Inter, Arial" font-size="10.00" fill="#111827">status</text>
<text text-anchor="start" x="264" y="-893" font-family="Inter, Arial" font-size="10.00" fill="#111827">reviewed_by</text>
<text text-anchor="start" x="264" y="-870" font-family="Inter, Arial" font-size="10.00" fill="#111827">FK published_challenge_id → challenges.id</text>
<polygon fill="none" stroke="#9ca3af" points="257,-860 257,-1142 475,-1142 475,-860 257,-860"/>
</g>
<!-- users&#45;&gt;generated_challenge_drafts -->
<g id="edge4" class="edge">
<title>users&#45;&gt;generated_challenge_drafts</title>
<path fill="none" stroke="#4b5563" d="M137.13,-866.33C137.13,-866.33 249.92,-866.33 249.92,-866.33"/>
<polygon fill="#4b5563" stroke="#4b5563" points="249.92,-868.78 256.92,-866.33 249.92,-863.88 249.92,-868.78"/>
<text text-anchor="middle" x="197" y="-969" font-family="Inter, Arial" font-size="10.00">generates</text>
<text text-anchor="middle" x="245.14" y="-869.33" font-family="Inter, Arial" font-size="10.00">N</text>
<text text-anchor="middle" x="148.91" y="-858.34" font-family="Inter, Arial" font-size="10.00">1</text>
</g>
<!-- users&#45;&gt;generated_challenge_drafts -->
<g id="edge19" class="edge">
<title>users&#45;&gt;generated_challenge_drafts</title>
<path fill="none" stroke="#9ca3af" stroke-dasharray="5,2" d="M137.13,-872.67C137.13,-872.67 249.92,-872.67 249.92,-872.67"/>
<polygon fill="#9ca3af" stroke="#9ca3af" points="249.92,-875.12 256.92,-872.67 249.92,-870.22 249.92,-875.12"/>
<text text-anchor="middle" x="197" y="-886" font-family="Inter, Arial" font-size="10.00">reviews</text>
<text text-anchor="middle" x="252.92" y="-875.67" font-family="Inter, Arial" font-size="10.00">N</text>
<text text-anchor="middle" x="139.13" y="-864.67" font-family="Inter, Arial" font-size="10.00">1</text>
</g>
<!-- user_badges -->
<g id="node12" class="node">
<title>user_badges</title>
<polygon fill="#f3f4f6" stroke="transparent" points="295,-116 295,-143 437,-143 437,-116 295,-116"/>
<text text-anchor="start" x="321" y="-126.8" font-family="Inter, Arial" font-weight="bold" font-size="14.00" fill="#111827">user_badges</text>
<text text-anchor="start" x="301" y="-102" font-family="Inter, Arial" font-size="10.00" fill="#111827">PK id UUID</text>
<text text-anchor="start" x="301" y="-79" font-family="Inter, Arial" font-size="10.00" fill="#111827">FK user_id → users.id</text>
<text text-anchor="start" x="301" y="-56" font-family="Inter, Arial" font-size="10.00" fill="#111827">FK badge_id → badges.id</text>
<text text-anchor="start" x="301" y="-33" font-family="Inter, Arial" font-size="10.00" fill="#111827">earned_at</text>
<text text-anchor="start" x="301" y="-10" font-family="Inter, Arial" font-size="10.00" fill="#111827">UNIQUE(user_id, badge_id)</text>
<polygon fill="none" stroke="#9ca3af" points="294,0 294,-144 438,-144 438,0 294,0"/>
</g>
<!-- users&#45;&gt;user_badges -->
<g id="edge8" class="edge">
<title>users&#45;&gt;user_badges</title>
<path fill="none" stroke="#4b5563" d="M115,-688.7C115,-499.81 115,-96 115,-96 115,-96 286.74,-96 286.74,-96"/>
<polygon fill="#4b5563" stroke="#4b5563" points="286.74,-98.45 293.74,-96 286.74,-93.55 286.74,-98.45"/>
<text text-anchor="middle" x="197" y="-161" font-family="Inter, Arial" font-size="10.00">earns</text>
<text text-anchor="middle" x="281.96" y="-98.99" font-family="Inter, Arial" font-size="10.00">N</text>
<text text-anchor="middle" x="109.51" y="-674.42" font-family="Inter, Arial" font-size="10.00">1</text>
</g>
<!-- point_transactions -->
<g id="node13" class="node">
<title>point_transactions</title>
<polygon fill="#ede9fe" stroke="transparent" points="261,-1674 261,-1701 472,-1701 472,-1674 261,-1674"/>
<text text-anchor="start" x="302.5" y="-1684.8" font-family="Inter, Arial" font-weight="bold" font-size="14.00" fill="#111827">point_transactions</text>
<text text-anchor="start" x="267" y="-1660" font-family="Inter, Arial" font-size="10.00" fill="#111827">PK id UUID</text>
<text text-anchor="start" x="267" y="-1637" font-family="Inter, Arial" font-size="10.00" fill="#111827">FK user_id → users.id</text>
<text text-anchor="start" x="267" y="-1614" font-family="Inter, Arial" font-size="10.00" fill="#111827">source_type: challenge/bug_report</text>
<text text-anchor="start" x="267" y="-1591" font-family="Inter, Arial" font-size="10.00" fill="#111827">source_id UUID</text>
<text text-anchor="start" x="267" y="-1568" font-family="Inter, Arial" font-size="10.00" fill="#111827">point</text>
<text text-anchor="start" x="267" y="-1545" font-family="Inter, Arial" font-size="10.00" fill="#111827">description</text>
<text text-anchor="start" x="267" y="-1522" font-family="Inter, Arial" font-size="10.00" fill="#111827">UNIQUE(user_id, source_type, source_id)</text>
<polygon fill="none" stroke="#9ca3af" points="259.5,-1512 259.5,-1702 472.5,-1702 472.5,-1512 259.5,-1512"/>
</g>
<!-- users&#45;&gt;point_transactions -->
<g id="edge9" class="edge">
<title>users&#45;&gt;point_transactions</title>
<path fill="none" stroke="#4b5563" d="M35,-879.21C35,-1095.85 35,-1607 35,-1607 35,-1607 252.45,-1607 252.45,-1607"/>
<polygon fill="#4b5563" stroke="#4b5563" points="252.45,-1609.45 259.45,-1607 252.45,-1604.55 252.45,-1609.45"/>
<text text-anchor="middle" x="197" y="-1610" font-family="Inter, Arial" font-size="10.00">receives</text>
<text text-anchor="middle" x="247.67" y="-1609.99" font-family="Inter, Arial" font-size="10.00">N</text>
<text text-anchor="middle" x="40.49" y="-888.49" font-family="Inter, Arial" font-size="10.00">1</text>
</g>
<!-- modules -->
<g id="node3" class="node">
<title>modules</title>
<polygon fill="#e0f2fe" stroke="transparent" points="613,-1308 613,-1335 780,-1335 780,-1308 613,-1308"/>
<text text-anchor="start" x="667" y="-1318.8" font-family="Inter, Arial" font-weight="bold" font-size="14.00" fill="#111827">modules</text>
<text text-anchor="start" x="619" y="-1294" font-family="Inter, Arial" font-size="10.00" fill="#111827">PK id UUID</text>
<text text-anchor="start" x="619" y="-1271" font-family="Inter, Arial" font-size="10.00" fill="#111827">FK course_id → courses.id</text>
<text text-anchor="start" x="619" y="-1248" font-family="Inter, Arial" font-size="10.00" fill="#111827">title</text>
<text text-anchor="start" x="619" y="-1225" font-family="Inter, Arial" font-size="10.00" fill="#111827">order_index</text>
<text text-anchor="start" x="619" y="-1202" font-family="Inter, Arial" font-size="10.00" fill="#111827">UNIQUE(course_id, order_index)</text>
<polygon fill="none" stroke="#9ca3af" points="611.5,-1192 611.5,-1336 780.5,-1336 780.5,-1192 611.5,-1192"/>
</g>
<!-- courses&#45;&gt;modules -->
<g id="edge10" class="edge">
<title>courses&#45;&gt;modules</title>
<path fill="none" stroke="#4b5563" d="M434.38,-1264.25C434.38,-1264.25 604.28,-1264.25 604.28,-1264.25"/>
<polygon fill="#4b5563" stroke="#4b5563" points="604.28,-1266.7 611.28,-1264.25 604.28,-1261.8 604.28,-1266.7"/>
<text text-anchor="middle" x="531.5" y="-1273" font-family="Inter, Arial" font-size="10.00">contains</text>
<text text-anchor="middle" x="599.5" y="-1267.24" font-family="Inter, Arial" font-size="10.00">N</text>
<text text-anchor="middle" x="446.16" y="-1256.26" font-family="Inter, Arial" font-size="10.00">1</text>
</g>
<!-- lessons -->
<g id="node4" class="node">
<title>lessons</title>
<polygon fill="#e0f2fe" stroke="transparent" points="935.5,-1319 935.5,-1346 1104.5,-1346 1104.5,-1319 935.5,-1319"/>
<text text-anchor="start" x="994" y="-1329.8" font-family="Inter, Arial" font-weight="bold" font-size="14.00" fill="#111827">lessons</text>
<text text-anchor="start" x="941.5" y="-1305" font-family="Inter, Arial" font-size="10.00" fill="#111827">PK id UUID</text>
<text text-anchor="start" x="941.5" y="-1282" font-family="Inter, Arial" font-size="10.00" fill="#111827">FK module_id → modules.id</text>
<text text-anchor="start" x="941.5" y="-1259" font-family="Inter, Arial" font-size="10.00" fill="#111827">title</text>
<text text-anchor="start" x="941.5" y="-1236" font-family="Inter, Arial" font-size="10.00" fill="#111827">content, video_url</text>
<text text-anchor="start" x="941.5" y="-1213" font-family="Inter, Arial" font-size="10.00" fill="#111827">order_index</text>
<text text-anchor="start" x="941.5" y="-1190" font-family="Inter, Arial" font-size="10.00" fill="#111827">UNIQUE(module_id, order_index)</text>
<polygon fill="none" stroke="#9ca3af" points="934,-1180.5 934,-1347.5 1105,-1347.5 1105,-1180.5 934,-1180.5"/>
</g>
<!-- modules&#45;&gt;lessons -->
<g id="edge11" class="edge">
<title>modules&#45;&gt;lessons</title>
<path fill="none" stroke="#4b5563" d="M780.57,-1264C780.57,-1264 926.73,-1264 926.73,-1264"/>
<polygon fill="#4b5563" stroke="#4b5563" points="926.73,-1266.45 933.73,-1264 926.73,-1261.55 926.73,-1266.45"/>
<text text-anchor="middle" x="869" y="-1267" font-family="Inter, Arial" font-size="10.00">contains</text>
<text text-anchor="middle" x="921.95" y="-1266.99" font-family="Inter, Arial" font-size="10.00">N</text>
<text text-anchor="middle" x="792.36" y="-1256.01" font-family="Inter, Arial" font-size="10.00">1</text>
</g>
<!-- lessons&#45;&gt;course_progress -->
<g id="edge12" class="edge">
<title>lessons&#45;&gt;course_progress</title>
<path fill="none" stroke="#4b5563" d="M1105.22,-1323.5C1105.22,-1323.5 1234.06,-1323.5 1234.06,-1323.5"/>
<polygon fill="#4b5563" stroke="#4b5563" points="1234.06,-1325.95 1241.06,-1323.5 1234.06,-1321.05 1234.06,-1325.95"/>
<text text-anchor="middle" x="1166" y="-1365" font-family="Inter, Arial" font-size="10.00">tracked by</text>
<text text-anchor="middle" x="1229.28" y="-1326.49" font-family="Inter, Arial" font-size="10.00">N</text>
<text text-anchor="middle" x="1117" y="-1315.51" font-family="Inter, Arial" font-size="10.00">1</text>
</g>
<!-- lessons&#45;&gt;challenges -->
<g id="edge13" class="edge">
<title>lessons&#45;&gt;challenges</title>
<path fill="none" stroke="#4b5563" d="M1105.29,-1240C1165.39,-1240 1235,-1240 1235,-1240 1235,-1240 1235,-989.19 1235,-989.19"/>
<polygon fill="#4b5563" stroke="#4b5563" points="1237.45,-989.19 1235,-982.19 1232.55,-989.19 1237.45,-989.19"/>
<text text-anchor="middle" x="1166" y="-1148" font-family="Inter, Arial" font-size="10.00">related to</text>
<text text-anchor="middle" x="1240.49" y="-991.48" font-family="Inter, Arial" font-size="10.00">N</text>
<text text-anchor="middle" x="1117.07" y="-1232.01" font-family="Inter, Arial" font-size="10.00">1</text>
</g>
<!-- challenges&#45;&gt;challenge_submissions -->
<g id="edge14" class="edge">
<title>challenges&#45;&gt;challenge_submissions</title>
<path fill="none" stroke="#4b5563" d="M1315,-745.76C1315,-578.17 1315,-291.67 1315,-291.67 1315,-291.67 1507.72,-291.67 1507.72,-291.67"/>
<polygon fill="#4b5563" stroke="#4b5563" points="1507.72,-294.12 1514.72,-291.67 1507.72,-289.22 1507.72,-294.12"/>
<text text-anchor="middle" x="1458.5" y="-654" font-family="Inter, Arial" font-size="10.00">receives</text>
<text text-anchor="middle" x="1502.94" y="-294.66" font-family="Inter, Arial" font-size="10.00">N</text>
<text text-anchor="middle" x="1309.51" y="-731.48" font-family="Inter, Arial" font-size="10.00">1</text>
</g>
<!-- bug_bounty_programs&#45;&gt;bug_reports -->
<g id="edge15" class="edge">
<title>bug_bounty_programs&#45;&gt;bug_reports</title>
<path fill="none" stroke="#4b5563" d="M451.41,-502C451.41,-502 580.86,-502 580.86,-502"/>
<polygon fill="#4b5563" stroke="#4b5563" points="580.86,-504.45 587.86,-502 580.86,-499.55 580.86,-504.45"/>
<text text-anchor="middle" x="531.5" y="-505" font-family="Inter, Arial" font-size="10.00">receives</text>
<text text-anchor="middle" x="576.08" y="-504.99" font-family="Inter, Arial" font-size="10.00">N</text>
<text text-anchor="middle" x="463.19" y="-494.01" font-family="Inter, Arial" font-size="10.00">1</text>
</g>
<!-- generated_challenge_drafts&#45;&gt;challenges -->
<g id="edge17" class="edge">
<title>generated_challenge_drafts&#45;&gt;challenges</title>
<path fill="none" stroke="#6b7280" stroke-dasharray="5,2" d="M475.27,-921C475.27,-921 1219.95,-921 1219.95,-921"/>
<polygon fill="#6b7280" stroke="#6b7280" points="1219.95,-923.45 1226.95,-921 1219.95,-918.55 1219.95,-923.45"/>
<text text-anchor="middle" x="869" y="-947" font-family="Inter, Arial" font-size="10.00">publishes to</text>
<text text-anchor="middle" x="1218.95" y="-913" font-family="Inter, Arial" font-size="10.00">0..1</text>
<text text-anchor="middle" x="479.27" y="-913" font-family="Inter, Arial" font-size="10.00">N</text>
</g>
<!-- badges -->
<g id="node11" class="node">
<title>badges</title>
<polygon fill="#f3f4f6" stroke="transparent" points="28.5,-116 28.5,-143 109.5,-143 109.5,-116 28.5,-116"/>
<text text-anchor="start" x="43" y="-126.8" font-family="Inter, Arial" font-weight="bold" font-size="14.00" fill="#111827">badges</text>
<text text-anchor="start" x="34.5" y="-102" font-family="Inter, Arial" font-size="10.00" fill="#111827">PK id UUID</text>
<text text-anchor="start" x="34.5" y="-79" font-family="Inter, Arial" font-size="10.00" fill="#111827">name UNIQUE</text>
<text text-anchor="start" x="34.5" y="-56" font-family="Inter, Arial" font-size="10.00" fill="#111827">description</text>
<text text-anchor="start" x="34.5" y="-33" font-family="Inter, Arial" font-size="10.00" fill="#111827">icon_url</text>
<text text-anchor="start" x="34.5" y="-10" font-family="Inter, Arial" font-size="10.00" fill="#111827">condition</text>
<polygon fill="none" stroke="#9ca3af" points="27,0 27,-144 110,-144 110,0 27,0"/>
</g>
<!-- badges&#45;&gt;user_badges -->
<g id="edge16" class="edge">
<title>badges&#45;&gt;user_badges</title>
<path fill="none" stroke="#4b5563" d="M110.18,-48C110.18,-48 286.97,-48 286.97,-48"/>
<polygon fill="#4b5563" stroke="#4b5563" points="286.97,-50.45 293.97,-48 286.97,-45.55 286.97,-50.45"/>
<text text-anchor="middle" x="197" y="-75" font-family="Inter, Arial" font-size="10.00">assigned</text>
<text text-anchor="middle" x="282.19" y="-50.99" font-family="Inter, Arial" font-size="10.00">N</text>
<text text-anchor="middle" x="121.96" y="-40.01" font-family="Inter, Arial" font-size="10.00">1</text>
</g>
</g>
</svg>
