<?xml version="1.0" encoding="utf-8" standalone="no"?>
<!DOCTYPE svg PUBLIC "-//W3C//DTD SVG 1.1//EN"
  "http://www.w3.org/Graphics/SVG/1.1/DTD/svg11.dtd">
<svg xmlns:xlink="http://www.w3.org/1999/xlink" width="907.2pt" height="513.36pt" viewBox="0 0 907.2 513.36" xmlns="http://www.w3.org/2000/svg" version="1.1">
 <metadata>
  <rdf:RDF xmlns:dc="http://purl.org/dc/elements/1.1/" xmlns:cc="http://creativecommons.org/ns#" xmlns:rdf="http://www.w3.org/1999/02/22-rdf-syntax-ns#">
   <cc:Work>
    <dc:type rdf:resource="http://purl.org/dc/dcmitype/StillImage"/>
    <dc:date>2026-06-21T09:32:01.981215</dc:date>
    <dc:format>image/svg+xml</dc:format>
    <dc:creator>
     <cc:Agent>
      <dc:title>Matplotlib v3.10.8, https://matplotlib.org/</dc:title>
     </cc:Agent>
    </dc:creator>
   </cc:Work>
  </rdf:RDF>
 </metadata>
 <defs>
  <style type="text/css">*{stroke-linejoin: round; stroke-linecap: butt}</style>
 </defs>
 <g id="figure_1">
  <g id="patch_1">
   <path d="M 0 513.36 
L 907.2 513.36 
L 907.2 -0 
L 0 -0 
z
" style="fill: #ffffff"/>
  </g>
  <g id="axes_1">
   <g id="patch_2">
    <path d="M 61.768 300.0916 
L 240.328 300.0916 
Q 271.576 300.0916 271.576 282.628 
L 271.576 212.7736 
Q 271.576 195.31 240.328 195.31 
L 61.768 195.31 
Q 30.52 195.31 30.52 212.7736 
L 30.52 282.628 
Q 30.52 300.0916 61.768 300.0916 
z
" clip-path="url(#peca66eb62a)" style="fill: #434a48; opacity: 0.12"/>
    <path d="M 60.768 299.0916 
L 239.328 299.0916 
Q 270.576 299.0916 270.576 281.628 
L 270.576 211.7736 
Q 270.576 194.31 239.328 194.31 
L 60.768 194.31 
Q 29.52 194.31 29.52 211.7736 
L 29.52 281.628 
Q 29.52 299.0916 60.768 299.0916 
z
" clip-path="url(#peca66eb62a)" style="fill: #dff6ef; stroke: #10b981; stroke-width: 2; stroke-linejoin: miter"/>
    <path d="M 60.768 299.0916 
L 239.328 299.0916 
Q 270.576 299.0916 270.576 281.628 
L 270.576 211.7736 
Q 270.576 194.31 239.328 194.31 
L 60.768 194.31 
Q 29.52 194.31 29.52 211.7736 
L 29.52 281.628 
Q 29.52 299.0916 60.768 299.0916 
z
" clip-path="url(#peca66eb62a)" style="fill: #dff6ef; stroke: #10b981; stroke-width: 2; stroke-linejoin: miter"/>
   </g>
   <g id="patch_3">
    <path d="M 454.6 305.0812 
C 492.483732 305.0812 528.820945 299.035239 555.608789 288.27487 
C 582.396634 277.514501 597.448 262.91826 597.448 247.7008 
C 597.448 232.48334 582.396634 217.887099 555.608789 207.12673 
C 528.820945 196.366361 492.483732 190.3204 454.6 190.3204 
C 416.716268 190.3204 380.379055 196.366361 353.591211 207.12673 
C 326.803366 217.887099 311.752 232.48334 311.752 247.7008 
C 311.752 262.91826 326.803366 277.514501 353.591211 288.27487 
C 380.379055 299.035239 416.716268 305.0812 454.6 305.0812 
z
" clip-path="url(#peca66eb62a)" style="fill: #47494c; opacity: 0.12"/>
    <path d="M 453.6 304.0812 
C 491.483732 304.0812 527.820945 298.035239 554.608789 287.27487 
C 581.396634 276.514501 596.448 261.91826 596.448 246.7008 
C 596.448 231.48334 581.396634 216.887099 554.608789 206.12673 
C 527.820945 195.366361 491.483732 189.3204 453.6 189.3204 
C 415.716268 189.3204 379.379055 195.366361 352.591211 206.12673 
C 325.803366 216.887099 310.752 231.48334 310.752 246.7008 
C 310.752 261.91826 325.803366 276.514501 352.591211 287.27487 
C 379.379055 298.035239 415.716268 304.0812 453.6 304.0812 
z
" clip-path="url(#peca66eb62a)" style="fill: #eef2ff; stroke: #6366f1; stroke-width: 2; stroke-linejoin: miter"/>
    <path d="M 453.6 304.0812 
C 491.483732 304.0812 527.820945 298.035239 554.608789 287.27487 
C 581.396634 276.514501 596.448 261.91826 596.448 246.7008 
C 596.448 231.48334 581.396634 216.887099 554.608789 206.12673 
C 527.820945 195.366361 491.483732 189.3204 453.6 189.3204 
C 415.716268 189.3204 379.379055 195.366361 352.591211 206.12673 
C 325.803366 216.887099 310.752 231.48334 310.752 246.7008 
C 310.752 261.91826 325.803366 276.514501 352.591211 287.27487 
C 379.379055 298.035239 415.716268 304.0812 453.6 304.0812 
z
" clip-path="url(#peca66eb62a)" style="fill: #eef2ff; stroke: #6366f1; stroke-width: 2; stroke-linejoin: miter"/>
   </g>
   <g id="patch_4">
    <path d="M 659.944 300.0916 
L 856.36 300.0916 
Q 887.608 300.0916 887.608 282.628 
L 887.608 212.7736 
Q 887.608 195.31 856.36 195.31 
L 659.944 195.31 
Q 628.696 195.31 628.696 212.7736 
L 628.696 282.628 
Q 628.696 300.0916 659.944 300.0916 
z
" clip-path="url(#peca66eb62a)" style="fill: #4c4543; opacity: 0.12"/>
    <path d="M 658.944 299.0916 
L 855.36 299.0916 
Q 886.608 299.0916 886.608 281.628 
L 886.608 211.7736 
Q 886.608 194.31 855.36 194.31 
L 658.944 194.31 
Q 627.696 194.31 627.696 211.7736 
L 627.696 281.628 
Q 627.696 299.0916 658.944 299.0916 
z
" clip-path="url(#peca66eb62a)" style="fill: #fce7de; stroke: #f97316; stroke-width: 2; stroke-linejoin: miter"/>
    <path d="M 658.944 299.0916 
L 855.36 299.0916 
Q 886.608 299.0916 886.608 281.628 
L 886.608 211.7736 
Q 886.608 194.31 855.36 194.31 
L 658.944 194.31 
Q 627.696 194.31 627.696 211.7736 
L 627.696 281.628 
Q 627.696 299.0916 658.944 299.0916 
z
" clip-path="url(#peca66eb62a)" style="fill: #fce7de; stroke: #f97316; stroke-width: 2; stroke-linejoin: miter"/>
   </g>
   <g id="text_1">
    <!-- DFD Level 0 — Context Diagram CTFForge -->
    <g style="fill: #111827" transform="translate(241.032656 42.034163) scale(0.18 -0.18)">
     <defs>
      <path id="DejaVuSans-Bold-44" d="M 1791 3756 
L 1791 909 
L 2222 909 
Q 2959 909 3348 1275 
Q 3738 1641 3738 2338 
Q 3738 3031 3350 3393 
Q 2963 3756 2222 3756 
L 1791 3756 
z
M 588 4666 
L 1856 4666 
Q 2919 4666 3439 4514 
Q 3959 4363 4331 4000 
Q 4659 3684 4818 3271 
Q 4978 2859 4978 2338 
Q 4978 1809 4818 1395 
Q 4659 981 4331 666 
Q 3956 303 3431 151 
Q 2906 0 1856 0 
L 588 0 
L 588 4666 
z
" transform="scale(0.015625)"/>
      <path id="DejaVuSans-Bold-46" d="M 588 4666 
L 3834 4666 
L 3834 3756 
L 1791 3756 
L 1791 2888 
L 3713 2888 
L 3713 1978 
L 1791 1978 
L 1791 0 
L 588 0 
L 588 4666 
z
" transform="scale(0.015625)"/>
      <path id="DejaVuSans-Bold-20" transform="scale(0.015625)"/>
      <path id="DejaVuSans-Bold-4c" d="M 588 4666 
L 1791 4666 
L 1791 909 
L 3903 909 
L 3903 0 
L 588 0 
L 588 4666 
z
" transform="scale(0.015625)"/>
      <path id="DejaVuSans-Bold-65" d="M 4031 1759 
L 4031 1441 
L 1416 1441 
Q 1456 1047 1700 850 
Q 1944 653 2381 653 
Q 2734 653 3104 758 
Q 3475 863 3866 1075 
L 3866 213 
Q 3469 63 3072 -14 
Q 2675 -91 2278 -91 
Q 1328 -91 801 392 
Q 275 875 275 1747 
Q 275 2603 792 3093 
Q 1309 3584 2216 3584 
Q 3041 3584 3536 3087 
Q 4031 2591 4031 1759 
z
M 2881 2131 
Q 2881 2450 2695 2645 
Q 2509 2841 2209 2841 
Q 1884 2841 1681 2658 
Q 1478 2475 1428 2131 
L 2881 2131 
z
" transform="scale(0.015625)"/>
      <path id="DejaVuSans-Bold-76" d="M 97 3500 
L 1216 3500 
L 2088 1081 
L 2956 3500 
L 4078 3500 
L 2700 0 
L 1472 0 
L 97 3500 
z
" transform="scale(0.015625)"/>
      <path id="DejaVuSans-Bold-6c" d="M 538 4863 
L 1656 4863 
L 1656 0 
L 538 0 
L 538 4863 
z
" transform="scale(0.015625)"/>
      <path id="DejaVuSans-Bold-30" d="M 2944 2338 
Q 2944 3213 2780 3570 
Q 2616 3928 2228 3928 
Q 1841 3928 1675 3570 
Q 1509 3213 1509 2338 
Q 1509 1453 1675 1090 
Q 1841 728 2228 728 
Q 2613 728 2778 1090 
Q 2944 1453 2944 2338 
z
M 4147 2328 
Q 4147 1169 3647 539 
Q 3147 -91 2228 -91 
Q 1306 -91 806 539 
Q 306 1169 306 2328 
Q 306 3491 806 4120 
Q 1306 4750 2228 4750 
Q 3147 4750 3647 4120 
Q 4147 3491 4147 2328 
z
" transform="scale(0.015625)"/>
      <path id="DejaVuSans-Bold-2014" d="M 344 2156 
L 6056 2156 
L 6056 1350 
L 344 1350 
L 344 2156 
z
" transform="scale(0.015625)"/>
      <path id="DejaVuSans-Bold-43" d="M 4288 256 
Q 3956 84 3597 -3 
Q 3238 -91 2847 -91 
Q 1681 -91 1000 561 
Q 319 1213 319 2328 
Q 319 3447 1000 4098 
Q 1681 4750 2847 4750 
Q 3238 4750 3597 4662 
Q 3956 4575 4288 4403 
L 4288 3438 
Q 3953 3666 3628 3772 
Q 3303 3878 2944 3878 
Q 2300 3878 1931 3465 
Q 1563 3053 1563 2328 
Q 1563 1606 1931 1193 
Q 2300 781 2944 781 
Q 3303 781 3628 887 
Q 3953 994 4288 1222 
L 4288 256 
z
" transform="scale(0.015625)"/>
      <path id="DejaVuSans-Bold-6f" d="M 2203 2784 
Q 1831 2784 1636 2517 
Q 1441 2250 1441 1747 
Q 1441 1244 1636 976 
Q 1831 709 2203 709 
Q 2569 709 2762 976 
Q 2956 1244 2956 1747 
Q 2956 2250 2762 2517 
Q 2569 2784 2203 2784 
z
M 2203 3584 
Q 3106 3584 3614 3096 
Q 4122 2609 4122 1747 
Q 4122 884 3614 396 
Q 3106 -91 2203 -91 
Q 1297 -91 786 396 
Q 275 884 275 1747 
Q 275 2609 786 3096 
Q 1297 3584 2203 3584 
z
" transform="scale(0.015625)"/>
      <path id="DejaVuSans-Bold-6e" d="M 4056 2131 
L 4056 0 
L 2931 0 
L 2931 347 
L 2931 1631 
Q 2931 2084 2911 2256 
Q 2891 2428 2841 2509 
Q 2775 2619 2662 2680 
Q 2550 2741 2406 2741 
Q 2056 2741 1856 2470 
Q 1656 2200 1656 1722 
L 1656 0 
L 538 0 
L 538 3500 
L 1656 3500 
L 1656 2988 
Q 1909 3294 2193 3439 
Q 2478 3584 2822 3584 
Q 3428 3584 3742 3212 
Q 4056 2841 4056 2131 
z
" transform="scale(0.015625)"/>
      <path id="DejaVuSans-Bold-74" d="M 1759 4494 
L 1759 3500 
L 2913 3500 
L 2913 2700 
L 1759 2700 
L 1759 1216 
Q 1759 972 1856 886 
Q 1953 800 2241 800 
L 2816 800 
L 2816 0 
L 1856 0 
Q 1194 0 917 276 
Q 641 553 641 1216 
L 641 2700 
L 84 2700 
L 84 3500 
L 641 3500 
L 641 4494 
L 1759 4494 
z
" transform="scale(0.015625)"/>
      <path id="DejaVuSans-Bold-78" d="M 1422 1791 
L 159 3500 
L 1344 3500 
L 2059 2463 
L 2784 3500 
L 3969 3500 
L 2706 1797 
L 4031 0 
L 2847 0 
L 2059 1106 
L 1281 0 
L 97 0 
L 1422 1791 
z
" transform="scale(0.015625)"/>
      <path id="DejaVuSans-Bold-69" d="M 538 3500 
L 1656 3500 
L 1656 0 
L 538 0 
L 538 3500 
z
M 538 4863 
L 1656 4863 
L 1656 3950 
L 538 3950 
L 538 4863 
z
" transform="scale(0.015625)"/>
      <path id="DejaVuSans-Bold-61" d="M 2106 1575 
Q 1756 1575 1579 1456 
Q 1403 1338 1403 1106 
Q 1403 894 1545 773 
Q 1688 653 1941 653 
Q 2256 653 2472 879 
Q 2688 1106 2688 1447 
L 2688 1575 
L 2106 1575 
z
M 3816 1997 
L 3816 0 
L 2688 0 
L 2688 519 
Q 2463 200 2181 54 
Q 1900 -91 1497 -91 
Q 953 -91 614 226 
Q 275 544 275 1050 
Q 275 1666 698 1953 
Q 1122 2241 2028 2241 
L 2688 2241 
L 2688 2328 
Q 2688 2594 2478 2717 
Q 2269 2841 1825 2841 
Q 1466 2841 1156 2769 
Q 847 2697 581 2553 
L 581 3406 
Q 941 3494 1303 3539 
Q 1666 3584 2028 3584 
Q 2975 3584 3395 3211 
Q 3816 2838 3816 1997 
z
" transform="scale(0.015625)"/>
      <path id="DejaVuSans-Bold-67" d="M 2919 594 
Q 2688 288 2409 144 
Q 2131 0 1766 0 
Q 1125 0 706 504 
Q 288 1009 288 1791 
Q 288 2575 706 3076 
Q 1125 3578 1766 3578 
Q 2131 3578 2409 3434 
Q 2688 3291 2919 2981 
L 2919 3500 
L 4044 3500 
L 4044 353 
Q 4044 -491 3511 -936 
Q 2978 -1381 1966 -1381 
Q 1638 -1381 1331 -1331 
Q 1025 -1281 716 -1178 
L 716 -306 
Q 1009 -475 1290 -558 
Q 1572 -641 1856 -641 
Q 2406 -641 2662 -400 
Q 2919 -159 2919 353 
L 2919 594 
z
M 2181 2772 
Q 1834 2772 1640 2515 
Q 1447 2259 1447 1791 
Q 1447 1309 1634 1061 
Q 1822 813 2181 813 
Q 2531 813 2725 1069 
Q 2919 1325 2919 1791 
Q 2919 2259 2725 2515 
Q 2531 2772 2181 2772 
z
" transform="scale(0.015625)"/>
      <path id="DejaVuSans-Bold-72" d="M 3138 2547 
Q 2991 2616 2845 2648 
Q 2700 2681 2553 2681 
Q 2122 2681 1889 2404 
Q 1656 2128 1656 1613 
L 1656 0 
L 538 0 
L 538 3500 
L 1656 3500 
L 1656 2925 
Q 1872 3269 2151 3426 
Q 2431 3584 2822 3584 
Q 2878 3584 2943 3579 
Q 3009 3575 3134 3559 
L 3138 2547 
z
" transform="scale(0.015625)"/>
      <path id="DejaVuSans-Bold-6d" d="M 3781 2919 
Q 3994 3244 4286 3414 
Q 4578 3584 4928 3584 
Q 5531 3584 5847 3212 
Q 6163 2841 6163 2131 
L 6163 0 
L 5038 0 
L 5038 1825 
Q 5041 1866 5042 1909 
Q 5044 1953 5044 2034 
Q 5044 2406 4934 2573 
Q 4825 2741 4581 2741 
Q 4263 2741 4089 2478 
Q 3916 2216 3909 1719 
L 3909 0 
L 2784 0 
L 2784 1825 
Q 2784 2406 2684 2573 
Q 2584 2741 2328 2741 
Q 2006 2741 1831 2477 
Q 1656 2213 1656 1722 
L 1656 0 
L 531 0 
L 531 3500 
L 1656 3500 
L 1656 2988 
Q 1863 3284 2130 3434 
Q 2397 3584 2719 3584 
Q 3081 3584 3359 3409 
Q 3638 3234 3781 2919 
z
" transform="scale(0.015625)"/>
      <path id="DejaVuSans-Bold-54" d="M 31 4666 
L 4331 4666 
L 4331 3756 
L 2784 3756 
L 2784 0 
L 1581 0 
L 1581 3756 
L 31 3756 
L 31 4666 
z
" transform="scale(0.015625)"/>
     </defs>
     <use xlink:href="#DejaVuSans-Bold-44"/>
     <use xlink:href="#DejaVuSans-Bold-46" transform="translate(83.007812 0)"/>
     <use xlink:href="#DejaVuSans-Bold-44" transform="translate(151.318359 0)"/>
     <use xlink:href="#DejaVuSans-Bold-20" transform="translate(234.326172 0)"/>
     <use xlink:href="#DejaVuSans-Bold-4c" transform="translate(269.140625 0)"/>
     <use xlink:href="#DejaVuSans-Bold-65" transform="translate(332.861328 0)"/>
     <use xlink:href="#DejaVuSans-Bold-76" transform="translate(400.683594 0)"/>
     <use xlink:href="#DejaVuSans-Bold-65" transform="translate(465.869141 0)"/>
     <use xlink:href="#DejaVuSans-Bold-6c" transform="translate(533.691406 0)"/>
     <use xlink:href="#DejaVuSans-Bold-20" transform="translate(567.96875 0)"/>
     <use xlink:href="#DejaVuSans-Bold-30" transform="translate(602.783203 0)"/>
     <use xlink:href="#DejaVuSans-Bold-20" transform="translate(672.363281 0)"/>
     <use xlink:href="#DejaVuSans-Bold-2014" transform="translate(707.177734 0)"/>
     <use xlink:href="#DejaVuSans-Bold-20" transform="translate(807.177734 0)"/>
     <use xlink:href="#DejaVuSans-Bold-43" transform="translate(841.992188 0)"/>
     <use xlink:href="#DejaVuSans-Bold-6f" transform="translate(915.380859 0)"/>
     <use xlink:href="#DejaVuSans-Bold-6e" transform="translate(984.082031 0)"/>
     <use xlink:href="#DejaVuSans-Bold-74" transform="translate(1055.273438 0)"/>
     <use xlink:href="#DejaVuSans-Bold-65" transform="translate(1103.076172 0)"/>
     <use xlink:href="#DejaVuSans-Bold-78" transform="translate(1170.898438 0)"/>
     <use xlink:href="#DejaVuSans-Bold-74" transform="translate(1235.400391 0)"/>
     <use xlink:href="#DejaVuSans-Bold-20" transform="translate(1283.203125 0)"/>
     <use xlink:href="#DejaVuSans-Bold-44" transform="translate(1318.017578 0)"/>
     <use xlink:href="#DejaVuSans-Bold-69" transform="translate(1401.025391 0)"/>
     <use xlink:href="#DejaVuSans-Bold-61" transform="translate(1435.302734 0)"/>
     <use xlink:href="#DejaVuSans-Bold-67" transform="translate(1502.783203 0)"/>
     <use xlink:href="#DejaVuSans-Bold-72" transform="translate(1574.365234 0)"/>
     <use xlink:href="#DejaVuSans-Bold-61" transform="translate(1623.681641 0)"/>
     <use xlink:href="#DejaVuSans-Bold-6d" transform="translate(1691.162109 0)"/>
     <use xlink:href="#DejaVuSans-Bold-20" transform="translate(1795.361328 0)"/>
     <use xlink:href="#DejaVuSans-Bold-43" transform="translate(1830.175781 0)"/>
     <use xlink:href="#DejaVuSans-Bold-54" transform="translate(1903.564453 0)"/>
     <use xlink:href="#DejaVuSans-Bold-46" transform="translate(1971.777344 0)"/>
     <use xlink:href="#DejaVuSans-Bold-46" transform="translate(2040.087891 0)"/>
     <use xlink:href="#DejaVuSans-Bold-6f" transform="translate(2104.398438 0)"/>
     <use xlink:href="#DejaVuSans-Bold-72" transform="translate(2173.099609 0)"/>
     <use xlink:href="#DejaVuSans-Bold-67" transform="translate(2222.416016 0)"/>
     <use xlink:href="#DejaVuSans-Bold-65" transform="translate(2293.998047 0)"/>
    </g>
   </g>
   <g id="text_2">
    <!-- User -->
    <g style="fill: #111827" transform="translate(133.287141 225.339988) scale(0.13 -0.13)">
     <defs>
      <path id="DejaVuSans-Bold-55" d="M 588 4666 
L 1791 4666 
L 1791 1869 
Q 1791 1291 1980 1042 
Q 2169 794 2597 794 
Q 3028 794 3217 1042 
Q 3406 1291 3406 1869 
L 3406 4666 
L 4609 4666 
L 4609 1869 
Q 4609 878 4112 393 
Q 3616 -91 2597 -91 
Q 1581 -91 1084 393 
Q 588 878 588 1869 
L 588 4666 
z
" transform="scale(0.015625)"/>
      <path id="DejaVuSans-Bold-73" d="M 3272 3391 
L 3272 2541 
Q 2913 2691 2578 2766 
Q 2244 2841 1947 2841 
Q 1628 2841 1473 2761 
Q 1319 2681 1319 2516 
Q 1319 2381 1436 2309 
Q 1553 2238 1856 2203 
L 2053 2175 
Q 2913 2066 3209 1816 
Q 3506 1566 3506 1031 
Q 3506 472 3093 190 
Q 2681 -91 1863 -91 
Q 1516 -91 1145 -36 
Q 775 19 384 128 
L 384 978 
Q 719 816 1070 734 
Q 1422 653 1784 653 
Q 2113 653 2278 743 
Q 2444 834 2444 1013 
Q 2444 1163 2330 1236 
Q 2216 1309 1875 1350 
L 1678 1375 
Q 931 1469 631 1722 
Q 331 1975 331 2491 
Q 331 3047 712 3315 
Q 1094 3584 1881 3584 
Q 2191 3584 2531 3537 
Q 2872 3491 3272 3391 
z
" transform="scale(0.015625)"/>
     </defs>
     <use xlink:href="#DejaVuSans-Bold-55"/>
     <use xlink:href="#DejaVuSans-Bold-73" transform="translate(81.201172 0)"/>
     <use xlink:href="#DejaVuSans-Bold-65" transform="translate(140.722656 0)"/>
     <use xlink:href="#DejaVuSans-Bold-72" transform="translate(208.544922 0)"/>
    </g>
   </g>
   <g id="text_3">
    <!-- Peserta latihan -->
    <g style="fill: #111827" transform="translate(112.583937 294.366575) scale(0.1 -0.1)">
     <defs>
      <path id="DejaVuSans-50" d="M 1259 4147 
L 1259 2394 
L 2053 2394 
Q 2494 2394 2734 2622 
Q 2975 2850 2975 3272 
Q 2975 3691 2734 3919 
Q 2494 4147 2053 4147 
L 1259 4147 
z
M 628 4666 
L 2053 4666 
Q 2838 4666 3239 4311 
Q 3641 3956 3641 3272 
Q 3641 2581 3239 2228 
Q 2838 1875 2053 1875 
L 1259 1875 
L 1259 0 
L 628 0 
L 628 4666 
z
" transform="scale(0.015625)"/>
      <path id="DejaVuSans-65" d="M 3597 1894 
L 3597 1613 
L 953 1613 
Q 991 1019 1311 708 
Q 1631 397 2203 397 
Q 2534 397 2845 478 
Q 3156 559 3463 722 
L 3463 178 
Q 3153 47 2828 -22 
Q 2503 -91 2169 -91 
Q 1331 -91 842 396 
Q 353 884 353 1716 
Q 353 2575 817 3079 
Q 1281 3584 2069 3584 
Q 2775 3584 3186 3129 
Q 3597 2675 3597 1894 
z
M 3022 2063 
Q 3016 2534 2758 2815 
Q 2500 3097 2075 3097 
Q 1594 3097 1305 2825 
Q 1016 2553 972 2059 
L 3022 2063 
z
" transform="scale(0.015625)"/>
      <path id="DejaVuSans-73" d="M 2834 3397 
L 2834 2853 
Q 2591 2978 2328 3040 
Q 2066 3103 1784 3103 
Q 1356 3103 1142 2972 
Q 928 2841 928 2578 
Q 928 2378 1081 2264 
Q 1234 2150 1697 2047 
L 1894 2003 
Q 2506 1872 2764 1633 
Q 3022 1394 3022 966 
Q 3022 478 2636 193 
Q 2250 -91 1575 -91 
Q 1294 -91 989 -36 
Q 684 19 347 128 
L 347 722 
Q 666 556 975 473 
Q 1284 391 1588 391 
Q 1994 391 2212 530 
Q 2431 669 2431 922 
Q 2431 1156 2273 1281 
Q 2116 1406 1581 1522 
L 1381 1569 
Q 847 1681 609 1914 
Q 372 2147 372 2553 
Q 372 3047 722 3315 
Q 1072 3584 1716 3584 
Q 2034 3584 2315 3537 
Q 2597 3491 2834 3397 
z
" transform="scale(0.015625)"/>
      <path id="DejaVuSans-72" d="M 2631 2963 
Q 2534 3019 2420 3045 
Q 2306 3072 2169 3072 
Q 1681 3072 1420 2755 
Q 1159 2438 1159 1844 
L 1159 0 
L 581 0 
L 581 3500 
L 1159 3500 
L 1159 2956 
Q 1341 3275 1631 3429 
Q 1922 3584 2338 3584 
Q 2397 3584 2469 3576 
Q 2541 3569 2628 3553 
L 2631 2963 
z
" transform="scale(0.015625)"/>
      <path id="DejaVuSans-74" d="M 1172 4494 
L 1172 3500 
L 2356 3500 
L 2356 3053 
L 1172 3053 
L 1172 1153 
Q 1172 725 1289 603 
Q 1406 481 1766 481 
L 2356 481 
L 2356 0 
L 1766 0 
Q 1100 0 847 248 
Q 594 497 594 1153 
L 594 3053 
L 172 3053 
L 172 3500 
L 594 3500 
L 594 4494 
L 1172 4494 
z
" transform="scale(0.015625)"/>
      <path id="DejaVuSans-61" d="M 2194 1759 
Q 1497 1759 1228 1600 
Q 959 1441 959 1056 
Q 959 750 1161 570 
Q 1363 391 1709 391 
Q 2188 391 2477 730 
Q 2766 1069 2766 1631 
L 2766 1759 
L 2194 1759 
z
M 3341 1997 
L 3341 0 
L 2766 0 
L 2766 531 
Q 2569 213 2275 61 
Q 1981 -91 1556 -91 
Q 1019 -91 701 211 
Q 384 513 384 1019 
Q 384 1609 779 1909 
Q 1175 2209 1959 2209 
L 2766 2209 
L 2766 2266 
Q 2766 2663 2505 2880 
Q 2244 3097 1772 3097 
Q 1472 3097 1187 3025 
Q 903 2953 641 2809 
L 641 3341 
Q 956 3463 1253 3523 
Q 1550 3584 1831 3584 
Q 2591 3584 2966 3190 
Q 3341 2797 3341 1997 
z
" transform="scale(0.015625)"/>
      <path id="DejaVuSans-20" transform="scale(0.015625)"/>
      <path id="DejaVuSans-6c" d="M 603 4863 
L 1178 4863 
L 1178 0 
L 603 0 
L 603 4863 
z
" transform="scale(0.015625)"/>
      <path id="DejaVuSans-69" d="M 603 3500 
L 1178 3500 
L 1178 0 
L 603 0 
L 603 3500 
z
M 603 4863 
L 1178 4863 
L 1178 4134 
L 603 4134 
L 603 4863 
z
" transform="scale(0.015625)"/>
      <path id="DejaVuSans-68" d="M 3513 2113 
L 3513 0 
L 2938 0 
L 2938 2094 
Q 2938 2591 2744 2837 
Q 2550 3084 2163 3084 
Q 1697 3084 1428 2787 
Q 1159 2491 1159 1978 
L 1159 0 
L 581 0 
L 581 4863 
L 1159 4863 
L 1159 2956 
Q 1366 3272 1645 3428 
Q 1925 3584 2291 3584 
Q 2894 3584 3203 3211 
Q 3513 2838 3513 2113 
z
" transform="scale(0.015625)"/>
      <path id="DejaVuSans-6e" d="M 3513 2113 
L 3513 0 
L 2938 0 
L 2938 2094 
Q 2938 2591 2744 2837 
Q 2550 3084 2163 3084 
Q 1697 3084 1428 2787 
Q 1159 2491 1159 1978 
L 1159 0 
L 581 0 
L 581 3500 
L 1159 3500 
L 1159 2956 
Q 1366 3272 1645 3428 
Q 1925 3584 2291 3584 
Q 2894 3584 3203 3211 
Q 3513 2838 3513 2113 
z
" transform="scale(0.015625)"/>
     </defs>
     <use xlink:href="#DejaVuSans-50"/>
     <use xlink:href="#DejaVuSans-65" transform="translate(56.677734 0)"/>
     <use xlink:href="#DejaVuSans-73" transform="translate(118.201172 0)"/>
     <use xlink:href="#DejaVuSans-65" transform="translate(170.300781 0)"/>
     <use xlink:href="#DejaVuSans-72" transform="translate(231.824219 0)"/>
     <use xlink:href="#DejaVuSans-74" transform="translate(272.9375 0)"/>
     <use xlink:href="#DejaVuSans-61" transform="translate(312.146484 0)"/>
     <use xlink:href="#DejaVuSans-20" transform="translate(373.425781 0)"/>
     <use xlink:href="#DejaVuSans-6c" transform="translate(405.212891 0)"/>
     <use xlink:href="#DejaVuSans-61" transform="translate(432.996094 0)"/>
     <use xlink:href="#DejaVuSans-74" transform="translate(494.275391 0)"/>
     <use xlink:href="#DejaVuSans-69" transform="translate(533.484375 0)"/>
     <use xlink:href="#DejaVuSans-68" transform="translate(561.267578 0)"/>
     <use xlink:href="#DejaVuSans-61" transform="translate(624.646484 0)"/>
     <use xlink:href="#DejaVuSans-6e" transform="translate(685.925781 0)"/>
    </g>
   </g>
   <g id="text_4">
    <!-- CTFForge -->
    <g style="fill: #111827" transform="translate(424.358906 224.702175) scale(0.11 -0.11)">
     <use xlink:href="#DejaVuSans-Bold-43"/>
     <use xlink:href="#DejaVuSans-Bold-54" transform="translate(73.388672 0)"/>
     <use xlink:href="#DejaVuSans-Bold-46" transform="translate(141.601562 0)"/>
     <use xlink:href="#DejaVuSans-Bold-46" transform="translate(209.912109 0)"/>
     <use xlink:href="#DejaVuSans-Bold-6f" transform="translate(274.222656 0)"/>
     <use xlink:href="#DejaVuSans-Bold-72" transform="translate(342.923828 0)"/>
     <use xlink:href="#DejaVuSans-Bold-67" transform="translate(392.240234 0)"/>
     <use xlink:href="#DejaVuSans-Bold-65" transform="translate(463.822266 0)"/>
    </g>
   </g>
   <g id="text_5">
    <!-- Learning Platform -->
    <g style="fill: #111827" transform="translate(406.998047 284.525344) scale(0.105 -0.105)">
     <defs>
      <path id="DejaVuSans-4c" d="M 628 4666 
L 1259 4666 
L 1259 531 
L 3531 531 
L 3531 0 
L 628 0 
L 628 4666 
z
" transform="scale(0.015625)"/>
      <path id="DejaVuSans-67" d="M 2906 1791 
Q 2906 2416 2648 2759 
Q 2391 3103 1925 3103 
Q 1463 3103 1205 2759 
Q 947 2416 947 1791 
Q 947 1169 1205 825 
Q 1463 481 1925 481 
Q 2391 481 2648 825 
Q 2906 1169 2906 1791 
z
M 3481 434 
Q 3481 -459 3084 -895 
Q 2688 -1331 1869 -1331 
Q 1566 -1331 1297 -1286 
Q 1028 -1241 775 -1147 
L 775 -588 
Q 1028 -725 1275 -790 
Q 1522 -856 1778 -856 
Q 2344 -856 2625 -561 
Q 2906 -266 2906 331 
L 2906 616 
Q 2728 306 2450 153 
Q 2172 0 1784 0 
Q 1141 0 747 490 
Q 353 981 353 1791 
Q 353 2603 747 3093 
Q 1141 3584 1784 3584 
Q 2172 3584 2450 3431 
Q 2728 3278 2906 2969 
L 2906 3500 
L 3481 3500 
L 3481 434 
z
" transform="scale(0.015625)"/>
      <path id="DejaVuSans-66" d="M 2375 4863 
L 2375 4384 
L 1825 4384 
Q 1516 4384 1395 4259 
Q 1275 4134 1275 3809 
L 1275 3500 
L 2222 3500 
L 2222 3053 
L 1275 3053 
L 1275 0 
L 697 0 
L 697 3053 
L 147 3053 
L 147 3500 
L 697 3500 
L 697 3744 
Q 697 4328 969 4595 
Q 1241 4863 1831 4863 
L 2375 4863 
z
" transform="scale(0.015625)"/>
      <path id="DejaVuSans-6f" d="M 1959 3097 
Q 1497 3097 1228 2736 
Q 959 2375 959 1747 
Q 959 1119 1226 758 
Q 1494 397 1959 397 
Q 2419 397 2687 759 
Q 2956 1122 2956 1747 
Q 2956 2369 2687 2733 
Q 2419 3097 1959 3097 
z
M 1959 3584 
Q 2709 3584 3137 3096 
Q 3566 2609 3566 1747 
Q 3566 888 3137 398 
Q 2709 -91 1959 -91 
Q 1206 -91 779 398 
Q 353 888 353 1747 
Q 353 2609 779 3096 
Q 1206 3584 1959 3584 
z
" transform="scale(0.015625)"/>
      <path id="DejaVuSans-6d" d="M 3328 2828 
Q 3544 3216 3844 3400 
Q 4144 3584 4550 3584 
Q 5097 3584 5394 3201 
Q 5691 2819 5691 2113 
L 5691 0 
L 5113 0 
L 5113 2094 
Q 5113 2597 4934 2840 
Q 4756 3084 4391 3084 
Q 3944 3084 3684 2787 
Q 3425 2491 3425 1978 
L 3425 0 
L 2847 0 
L 2847 2094 
Q 2847 2600 2669 2842 
Q 2491 3084 2119 3084 
Q 1678 3084 1418 2786 
Q 1159 2488 1159 1978 
L 1159 0 
L 581 0 
L 581 3500 
L 1159 3500 
L 1159 2956 
Q 1356 3278 1631 3431 
Q 1906 3584 2284 3584 
Q 2666 3584 2933 3390 
Q 3200 3197 3328 2828 
z
" transform="scale(0.015625)"/>
     </defs>
     <use xlink:href="#DejaVuSans-4c"/>
     <use xlink:href="#DejaVuSans-65" transform="translate(53.962891 0)"/>
     <use xlink:href="#DejaVuSans-61" transform="translate(115.486328 0)"/>
     <use xlink:href="#DejaVuSans-72" transform="translate(176.765625 0)"/>
     <use xlink:href="#DejaVuSans-6e" transform="translate(216.128906 0)"/>
     <use xlink:href="#DejaVuSans-69" transform="translate(279.507812 0)"/>
     <use xlink:href="#DejaVuSans-6e" transform="translate(307.291016 0)"/>
     <use xlink:href="#DejaVuSans-67" transform="translate(370.669922 0)"/>
     <use xlink:href="#DejaVuSans-20" transform="translate(434.146484 0)"/>
     <use xlink:href="#DejaVuSans-50" transform="translate(465.933594 0)"/>
     <use xlink:href="#DejaVuSans-6c" transform="translate(526.236328 0)"/>
     <use xlink:href="#DejaVuSans-61" transform="translate(554.019531 0)"/>
     <use xlink:href="#DejaVuSans-74" transform="translate(615.298828 0)"/>
     <use xlink:href="#DejaVuSans-66" transform="translate(654.507812 0)"/>
     <use xlink:href="#DejaVuSans-6f" transform="translate(689.712891 0)"/>
     <use xlink:href="#DejaVuSans-72" transform="translate(750.894531 0)"/>
     <use xlink:href="#DejaVuSans-6d" transform="translate(790.257812 0)"/>
    </g>
   </g>
   <g id="text_6">
    <!-- Admin / Reviewer -->
    <g style="fill: #111827" transform="translate(693.032547 225.339988) scale(0.13 -0.13)">
     <defs>
      <path id="DejaVuSans-Bold-41" d="M 3419 850 
L 1538 850 
L 1241 0 
L 31 0 
L 1759 4666 
L 3194 4666 
L 4922 0 
L 3713 0 
L 3419 850 
z
M 1838 1716 
L 3116 1716 
L 2478 3572 
L 1838 1716 
z
" transform="scale(0.015625)"/>
      <path id="DejaVuSans-Bold-64" d="M 2919 2988 
L 2919 4863 
L 4044 4863 
L 4044 0 
L 2919 0 
L 2919 506 
Q 2688 197 2409 53 
Q 2131 -91 1766 -91 
Q 1119 -91 703 423 
Q 288 938 288 1747 
Q 288 2556 703 3070 
Q 1119 3584 1766 3584 
Q 2128 3584 2408 3439 
Q 2688 3294 2919 2988 
z
M 2181 722 
Q 2541 722 2730 984 
Q 2919 1247 2919 1747 
Q 2919 2247 2730 2509 
Q 2541 2772 2181 2772 
Q 1825 2772 1636 2509 
Q 1447 2247 1447 1747 
Q 1447 1247 1636 984 
Q 1825 722 2181 722 
z
" transform="scale(0.015625)"/>
      <path id="DejaVuSans-Bold-2f" d="M 1644 4666 
L 2338 4666 
L 691 -594 
L 0 -594 
L 1644 4666 
z
" transform="scale(0.015625)"/>
      <path id="DejaVuSans-Bold-52" d="M 2297 2597 
Q 2675 2597 2839 2737 
Q 3003 2878 3003 3200 
Q 3003 3519 2839 3656 
Q 2675 3794 2297 3794 
L 1791 3794 
L 1791 2597 
L 2297 2597 
z
M 1791 1766 
L 1791 0 
L 588 0 
L 588 4666 
L 2425 4666 
Q 3347 4666 3776 4356 
Q 4206 4047 4206 3378 
Q 4206 2916 3982 2619 
Q 3759 2322 3309 2181 
Q 3556 2125 3751 1926 
Q 3947 1728 4147 1325 
L 4800 0 
L 3519 0 
L 2950 1159 
Q 2778 1509 2601 1637 
Q 2425 1766 2131 1766 
L 1791 1766 
z
" transform="scale(0.015625)"/>
      <path id="DejaVuSans-Bold-77" d="M 225 3500 
L 1313 3500 
L 1900 1088 
L 2491 3500 
L 3425 3500 
L 4013 1113 
L 4603 3500 
L 5691 3500 
L 4769 0 
L 3547 0 
L 2956 2406 
L 2369 0 
L 1147 0 
L 225 3500 
z
" transform="scale(0.015625)"/>
     </defs>
     <use xlink:href="#DejaVuSans-Bold-41"/>
     <use xlink:href="#DejaVuSans-Bold-64" transform="translate(77.392578 0)"/>
     <use xlink:href="#DejaVuSans-Bold-6d" transform="translate(148.974609 0)"/>
     <use xlink:href="#DejaVuSans-Bold-69" transform="translate(253.173828 0)"/>
     <use xlink:href="#DejaVuSans-Bold-6e" transform="translate(287.451172 0)"/>
     <use xlink:href="#DejaVuSans-Bold-20" transform="translate(358.642578 0)"/>
     <use xlink:href="#DejaVuSans-Bold-2f" transform="translate(393.457031 0)"/>
     <use xlink:href="#DejaVuSans-Bold-20" transform="translate(429.980469 0)"/>
     <use xlink:href="#DejaVuSans-Bold-52" transform="translate(464.794922 0)"/>
     <use xlink:href="#DejaVuSans-Bold-65" transform="translate(541.796875 0)"/>
     <use xlink:href="#DejaVuSans-Bold-76" transform="translate(609.619141 0)"/>
     <use xlink:href="#DejaVuSans-Bold-69" transform="translate(674.804688 0)"/>
     <use xlink:href="#DejaVuSans-Bold-65" transform="translate(709.082031 0)"/>
     <use xlink:href="#DejaVuSans-Bold-77" transform="translate(776.904297 0)"/>
     <use xlink:href="#DejaVuSans-Bold-65" transform="translate(869.287109 0)"/>
     <use xlink:href="#DejaVuSans-Bold-72" transform="translate(937.109375 0)"/>
    </g>
   </g>
   <g id="text_7">
    <!-- Pengelola platform -->
    <g style="fill: #111827" transform="translate(710.086375 294.366575) scale(0.1 -0.1)">
     <defs>
      <path id="DejaVuSans-70" d="M 1159 525 
L 1159 -1331 
L 581 -1331 
L 581 3500 
L 1159 3500 
L 1159 2969 
Q 1341 3281 1617 3432 
Q 1894 3584 2278 3584 
Q 2916 3584 3314 3078 
Q 3713 2572 3713 1747 
Q 3713 922 3314 415 
Q 2916 -91 2278 -91 
Q 1894 -91 1617 61 
Q 1341 213 1159 525 
z
M 3116 1747 
Q 3116 2381 2855 2742 
Q 2594 3103 2138 3103 
Q 1681 3103 1420 2742 
Q 1159 2381 1159 1747 
Q 1159 1113 1420 752 
Q 1681 391 2138 391 
Q 2594 391 2855 752 
Q 3116 1113 3116 1747 
z
" transform="scale(0.015625)"/>
     </defs>
     <use xlink:href="#DejaVuSans-50"/>
     <use xlink:href="#DejaVuSans-65" transform="translate(56.677734 0)"/>
     <use xlink:href="#DejaVuSans-6e" transform="translate(118.201172 0)"/>
     <use xlink:href="#DejaVuSans-67" transform="translate(181.580078 0)"/>
     <use xlink:href="#DejaVuSans-65" transform="translate(245.056641 0)"/>
     <use xlink:href="#DejaVuSans-6c" transform="translate(306.580078 0)"/>
     <use xlink:href="#DejaVuSans-6f" transform="translate(334.363281 0)"/>
     <use xlink:href="#DejaVuSans-6c" transform="translate(395.544922 0)"/>
     <use xlink:href="#DejaVuSans-61" transform="translate(423.328125 0)"/>
     <use xlink:href="#DejaVuSans-20" transform="translate(484.607422 0)"/>
     <use xlink:href="#DejaVuSans-70" transform="translate(516.394531 0)"/>
     <use xlink:href="#DejaVuSans-6c" transform="translate(579.871094 0)"/>
     <use xlink:href="#DejaVuSans-61" transform="translate(607.654297 0)"/>
     <use xlink:href="#DejaVuSans-74" transform="translate(668.933594 0)"/>
     <use xlink:href="#DejaVuSans-66" transform="translate(708.142578 0)"/>
     <use xlink:href="#DejaVuSans-6f" transform="translate(743.347656 0)"/>
     <use xlink:href="#DejaVuSans-72" transform="translate(804.529297 0)"/>
     <use xlink:href="#DejaVuSans-6d" transform="translate(843.892578 0)"/>
    </g>
   </g>
   <g id="patch_5">
    <path d="M 254.232703 217.310858 
Q 283.970399 219.786942 312.315372 217.426441 
" style="fill: none; stroke: #047857; stroke-width: 1.25; stroke-linecap: round"/>
    <path d="M 308.16319 215.765301 
L 312.315372 217.426441 
L 308.495152 219.751503 
" style="fill: none; stroke: #047857; stroke-width: 1.25; stroke-linecap: round"/>
   </g>
   <g id="text_8">
    <g id="patch_6">
     <path d="M 243.380812 192.359588 
L 324.555187 192.359588 
Q 325.635187 192.359588 325.635187 191.279587 
L 325.635187 162.413212 
Q 325.635187 161.333213 324.555187 161.333213 
L 243.380812 161.333213 
Q 242.300812 161.333213 242.300812 162.413212 
L 242.300812 191.279587 
Q 242.300812 192.359588 243.380812 192.359588 
z
" style="fill: #ffffff; opacity: 0.88"/>
    </g>
    <!-- registrasi/login -->
    <g style="fill: #047857" transform="translate(250.554797 169.251806) scale(0.09 -0.09)">
     <defs>
      <path id="DejaVuSans-2f" d="M 1625 4666 
L 2156 4666 
L 531 -594 
L 0 -594 
L 1625 4666 
z
" transform="scale(0.015625)"/>
     </defs>
     <use xlink:href="#DejaVuSans-72"/>
     <use xlink:href="#DejaVuSans-65" transform="translate(38.863281 0)"/>
     <use xlink:href="#DejaVuSans-67" transform="translate(100.386719 0)"/>
     <use xlink:href="#DejaVuSans-69" transform="translate(163.863281 0)"/>
     <use xlink:href="#DejaVuSans-73" transform="translate(191.646484 0)"/>
     <use xlink:href="#DejaVuSans-74" transform="translate(243.746094 0)"/>
     <use xlink:href="#DejaVuSans-72" transform="translate(282.955078 0)"/>
     <use xlink:href="#DejaVuSans-61" transform="translate(324.068359 0)"/>
     <use xlink:href="#DejaVuSans-73" transform="translate(385.347656 0)"/>
     <use xlink:href="#DejaVuSans-69" transform="translate(437.447266 0)"/>
     <use xlink:href="#DejaVuSans-2f" transform="translate(465.230469 0)"/>
     <use xlink:href="#DejaVuSans-6c" transform="translate(498.921875 0)"/>
     <use xlink:href="#DejaVuSans-6f" transform="translate(526.705078 0)"/>
     <use xlink:href="#DejaVuSans-67" transform="translate(587.886719 0)"/>
     <use xlink:href="#DejaVuSans-69" transform="translate(651.363281 0)"/>
     <use xlink:href="#DejaVuSans-6e" transform="translate(679.146484 0)"/>
    </g>
    <!-- submit flag/report -->
    <g style="fill: #047857" transform="translate(243.380812 179.329837) scale(0.09 -0.09)">
     <defs>
      <path id="DejaVuSans-75" d="M 544 1381 
L 544 3500 
L 1119 3500 
L 1119 1403 
Q 1119 906 1312 657 
Q 1506 409 1894 409 
Q 2359 409 2629 706 
Q 2900 1003 2900 1516 
L 2900 3500 
L 3475 3500 
L 3475 0 
L 2900 0 
L 2900 538 
Q 2691 219 2414 64 
Q 2138 -91 1772 -91 
Q 1169 -91 856 284 
Q 544 659 544 1381 
z
M 1991 3584 
L 1991 3584 
z
" transform="scale(0.015625)"/>
      <path id="DejaVuSans-62" d="M 3116 1747 
Q 3116 2381 2855 2742 
Q 2594 3103 2138 3103 
Q 1681 3103 1420 2742 
Q 1159 2381 1159 1747 
Q 1159 1113 1420 752 
Q 1681 391 2138 391 
Q 2594 391 2855 752 
Q 3116 1113 3116 1747 
z
M 1159 2969 
Q 1341 3281 1617 3432 
Q 1894 3584 2278 3584 
Q 2916 3584 3314 3078 
Q 3713 2572 3713 1747 
Q 3713 922 3314 415 
Q 2916 -91 2278 -91 
Q 1894 -91 1617 61 
Q 1341 213 1159 525 
L 1159 0 
L 581 0 
L 581 4863 
L 1159 4863 
L 1159 2969 
z
" transform="scale(0.015625)"/>
     </defs>
     <use xlink:href="#DejaVuSans-73"/>
     <use xlink:href="#DejaVuSans-75" transform="translate(52.099609 0)"/>
     <use xlink:href="#DejaVuSans-62" transform="translate(115.478516 0)"/>
     <use xlink:href="#DejaVuSans-6d" transform="translate(178.955078 0)"/>
     <use xlink:href="#DejaVuSans-69" transform="translate(276.367188 0)"/>
     <use xlink:href="#DejaVuSans-74" transform="translate(304.150391 0)"/>
     <use xlink:href="#DejaVuSans-20" transform="translate(343.359375 0)"/>
     <use xlink:href="#DejaVuSans-66" transform="translate(375.146484 0)"/>
     <use xlink:href="#DejaVuSans-6c" transform="translate(410.351562 0)"/>
     <use xlink:href="#DejaVuSans-61" transform="translate(438.134766 0)"/>
     <use xlink:href="#DejaVuSans-67" transform="translate(499.414062 0)"/>
     <use xlink:href="#DejaVuSans-2f" transform="translate(562.890625 0)"/>
     <use xlink:href="#DejaVuSans-72" transform="translate(596.582031 0)"/>
     <use xlink:href="#DejaVuSans-65" transform="translate(635.445312 0)"/>
     <use xlink:href="#DejaVuSans-70" transform="translate(696.96875 0)"/>
     <use xlink:href="#DejaVuSans-6f" transform="translate(760.445312 0)"/>
     <use xlink:href="#DejaVuSans-72" transform="translate(821.626953 0)"/>
     <use xlink:href="#DejaVuSans-74" transform="translate(862.740234 0)"/>
    </g>
    <!-- prompt generate -->
    <g style="fill: #047857" transform="translate(245.787609 189.407869) scale(0.09 -0.09)">
     <use xlink:href="#DejaVuSans-70"/>
     <use xlink:href="#DejaVuSans-72" transform="translate(63.476562 0)"/>
     <use xlink:href="#DejaVuSans-6f" transform="translate(102.339844 0)"/>
     <use xlink:href="#DejaVuSans-6d" transform="translate(163.521484 0)"/>
     <use xlink:href="#DejaVuSans-70" transform="translate(260.933594 0)"/>
     <use xlink:href="#DejaVuSans-74" transform="translate(324.410156 0)"/>
     <use xlink:href="#DejaVuSans-20" transform="translate(363.619141 0)"/>
     <use xlink:href="#DejaVuSans-67" transform="translate(395.40625 0)"/>
     <use xlink:href="#DejaVuSans-65" transform="translate(458.882812 0)"/>
     <use xlink:href="#DejaVuSans-6e" transform="translate(520.40625 0)"/>
     <use xlink:href="#DejaVuSans-65" transform="translate(583.785156 0)"/>
     <use xlink:href="#DejaVuSans-72" transform="translate(645.308594 0)"/>
     <use xlink:href="#DejaVuSans-61" transform="translate(686.421875 0)"/>
     <use xlink:href="#DejaVuSans-74" transform="translate(747.701172 0)"/>
     <use xlink:href="#DejaVuSans-65" transform="translate(786.910156 0)"/>
    </g>
   </g>
   <g id="patch_7">
    <path d="M 313.703297 277.186058 
Q 283.965601 279.662142 255.620628 277.301641 
" style="fill: none; stroke: #4b5563; stroke-width: 1.25; stroke-linecap: round"/>
    <path d="M 259.440848 279.626703 
L 255.620628 277.301641 
L 259.77281 275.640501 
" style="fill: none; stroke: #4b5563; stroke-width: 1.25; stroke-linecap: round"/>
   </g>
   <g id="text_9">
    <g id="patch_8">
     <path d="M 228.445031 342.047588 
L 339.490969 342.047588 
Q 340.570969 342.047588 340.570969 340.967588 
L 340.570969 312.101213 
Q 340.570969 311.021213 339.490969 311.021213 
L 228.445031 311.021213 
Q 227.365031 311.021213 227.365031 312.101213 
L 227.365031 340.967588 
Q 227.365031 342.047588 228.445031 342.047588 
z
" style="fill: #ffffff; opacity: 0.88"/>
    </g>
    <!-- token/session -->
    <g style="fill: #4b5563" transform="translate(253.214016 318.939806) scale(0.09 -0.09)">
     <defs>
      <path id="DejaVuSans-6b" d="M 581 4863 
L 1159 4863 
L 1159 1991 
L 2875 3500 
L 3609 3500 
L 1753 1863 
L 3688 0 
L 2938 0 
L 1159 1709 
L 1159 0 
L 581 0 
L 581 4863 
z
" transform="scale(0.015625)"/>
     </defs>
     <use xlink:href="#DejaVuSans-74"/>
     <use xlink:href="#DejaVuSans-6f" transform="translate(39.208984 0)"/>
     <use xlink:href="#DejaVuSans-6b" transform="translate(100.390625 0)"/>
     <use xlink:href="#DejaVuSans-65" transform="translate(154.675781 0)"/>
     <use xlink:href="#DejaVuSans-6e" transform="translate(216.199219 0)"/>
     <use xlink:href="#DejaVuSans-2f" transform="translate(279.578125 0)"/>
     <use xlink:href="#DejaVuSans-73" transform="translate(313.269531 0)"/>
     <use xlink:href="#DejaVuSans-65" transform="translate(365.369141 0)"/>
     <use xlink:href="#DejaVuSans-73" transform="translate(426.892578 0)"/>
     <use xlink:href="#DejaVuSans-73" transform="translate(478.992188 0)"/>
     <use xlink:href="#DejaVuSans-69" transform="translate(531.091797 0)"/>
     <use xlink:href="#DejaVuSans-6f" transform="translate(558.875 0)"/>
     <use xlink:href="#DejaVuSans-6e" transform="translate(620.056641 0)"/>
    </g>
    <!-- materi, challenge, scope -->
    <g style="fill: #4b5563" transform="translate(228.445031 329.017838) scale(0.09 -0.09)">
     <defs>
      <path id="DejaVuSans-2c" d="M 750 794 
L 1409 794 
L 1409 256 
L 897 -744 
L 494 -744 
L 750 256 
L 750 794 
z
" transform="scale(0.015625)"/>
      <path id="DejaVuSans-63" d="M 3122 3366 
L 3122 2828 
Q 2878 2963 2633 3030 
Q 2388 3097 2138 3097 
Q 1578 3097 1268 2742 
Q 959 2388 959 1747 
Q 959 1106 1268 751 
Q 1578 397 2138 397 
Q 2388 397 2633 464 
Q 2878 531 3122 666 
L 3122 134 
Q 2881 22 2623 -34 
Q 2366 -91 2075 -91 
Q 1284 -91 818 406 
Q 353 903 353 1747 
Q 353 2603 823 3093 
Q 1294 3584 2113 3584 
Q 2378 3584 2631 3529 
Q 2884 3475 3122 3366 
z
" transform="scale(0.015625)"/>
     </defs>
     <use xlink:href="#DejaVuSans-6d"/>
     <use xlink:href="#DejaVuSans-61" transform="translate(97.412109 0)"/>
     <use xlink:href="#DejaVuSans-74" transform="translate(158.691406 0)"/>
     <use xlink:href="#DejaVuSans-65" transform="translate(197.900391 0)"/>
     <use xlink:href="#DejaVuSans-72" transform="translate(259.423828 0)"/>
     <use xlink:href="#DejaVuSans-69" transform="translate(300.537109 0)"/>
     <use xlink:href="#DejaVuSans-2c" transform="translate(328.320312 0)"/>
     <use xlink:href="#DejaVuSans-20" transform="translate(360.107422 0)"/>
     <use xlink:href="#DejaVuSans-63" transform="translate(391.894531 0)"/>
     <use xlink:href="#DejaVuSans-68" transform="translate(446.875 0)"/>
     <use xlink:href="#DejaVuSans-61" transform="translate(510.253906 0)"/>
     <use xlink:href="#DejaVuSans-6c" transform="translate(571.533203 0)"/>
     <use xlink:href="#DejaVuSans-6c" transform="translate(599.316406 0)"/>
     <use xlink:href="#DejaVuSans-65" transform="translate(627.099609 0)"/>
     <use xlink:href="#DejaVuSans-6e" transform="translate(688.623047 0)"/>
     <use xlink:href="#DejaVuSans-67" transform="translate(752.001953 0)"/>
     <use xlink:href="#DejaVuSans-65" transform="translate(815.478516 0)"/>
     <use xlink:href="#DejaVuSans-2c" transform="translate(877.001953 0)"/>
     <use xlink:href="#DejaVuSans-20" transform="translate(908.789062 0)"/>
     <use xlink:href="#DejaVuSans-73" transform="translate(940.576172 0)"/>
     <use xlink:href="#DejaVuSans-63" transform="translate(992.675781 0)"/>
     <use xlink:href="#DejaVuSans-6f" transform="translate(1047.65625 0)"/>
     <use xlink:href="#DejaVuSans-70" transform="translate(1108.837891 0)"/>
     <use xlink:href="#DejaVuSans-65" transform="translate(1172.314453 0)"/>
    </g>
    <!-- point, progress, badge -->
    <g style="fill: #4b5563" transform="translate(233.252297 339.095869) scale(0.09 -0.09)">
     <defs>
      <path id="DejaVuSans-64" d="M 2906 2969 
L 2906 4863 
L 3481 4863 
L 3481 0 
L 2906 0 
L 2906 525 
Q 2725 213 2448 61 
Q 2172 -91 1784 -91 
Q 1150 -91 751 415 
Q 353 922 353 1747 
Q 353 2572 751 3078 
Q 1150 3584 1784 3584 
Q 2172 3584 2448 3432 
Q 2725 3281 2906 2969 
z
M 947 1747 
Q 947 1113 1208 752 
Q 1469 391 1925 391 
Q 2381 391 2643 752 
Q 2906 1113 2906 1747 
Q 2906 2381 2643 2742 
Q 2381 3103 1925 3103 
Q 1469 3103 1208 2742 
Q 947 2381 947 1747 
z
" transform="scale(0.015625)"/>
     </defs>
     <use xlink:href="#DejaVuSans-70"/>
     <use xlink:href="#DejaVuSans-6f" transform="translate(63.476562 0)"/>
     <use xlink:href="#DejaVuSans-69" transform="translate(124.658203 0)"/>
     <use xlink:href="#DejaVuSans-6e" transform="translate(152.441406 0)"/>
     <use xlink:href="#DejaVuSans-74" transform="translate(215.820312 0)"/>
     <use xlink:href="#DejaVuSans-2c" transform="translate(255.029297 0)"/>
     <use xlink:href="#DejaVuSans-20" transform="translate(286.816406 0)"/>
     <use xlink:href="#DejaVuSans-70" transform="translate(318.603516 0)"/>
     <use xlink:href="#DejaVuSans-72" transform="translate(382.080078 0)"/>
     <use xlink:href="#DejaVuSans-6f" transform="translate(420.943359 0)"/>
     <use xlink:href="#DejaVuSans-67" transform="translate(482.125 0)"/>
     <use xlink:href="#DejaVuSans-72" transform="translate(545.601562 0)"/>
     <use xlink:href="#DejaVuSans-65" transform="translate(584.464844 0)"/>
     <use xlink:href="#DejaVuSans-73" transform="translate(645.988281 0)"/>
     <use xlink:href="#DejaVuSans-73" transform="translate(698.087891 0)"/>
     <use xlink:href="#DejaVuSans-2c" transform="translate(750.1875 0)"/>
     <use xlink:href="#DejaVuSans-20" transform="translate(781.974609 0)"/>
     <use xlink:href="#DejaVuSans-62" transform="translate(813.761719 0)"/>
     <use xlink:href="#DejaVuSans-61" transform="translate(877.238281 0)"/>
     <use xlink:href="#DejaVuSans-64" transform="translate(938.517578 0)"/>
     <use xlink:href="#DejaVuSans-67" transform="translate(1001.994141 0)"/>
     <use xlink:href="#DejaVuSans-65" transform="translate(1065.470703 0)"/>
    </g>
   </g>
   <g id="patch_9">
    <path d="M 652.967297 207.331658 
Q 623.229601 209.807742 594.884628 207.447241 
" style="fill: none; stroke: #c2410c; stroke-width: 1.25; stroke-linecap: round"/>
    <path d="M 598.704848 209.772303 
L 594.884628 207.447241 
L 599.03681 205.786101 
" style="fill: none; stroke: #c2410c; stroke-width: 1.25; stroke-linecap: round"/>
   </g>
   <g id="text_10">
    <g id="patch_10">
     <path d="M 592.662234 177.390788 
L 653.801766 177.390788 
Q 654.881766 177.390788 654.881766 176.310788 
L 654.881766 147.444412 
Q 654.881766 146.364413 653.801766 146.364413 
L 592.662234 146.364413 
Q 591.582234 146.364413 591.582234 147.444412 
L 591.582234 176.310788 
Q 591.582234 177.390788 592.662234 177.390788 
z
" style="fill: #ffffff; opacity: 0.88"/>
    </g>
    <!-- CRUD konten -->
    <g style="fill: #c2410c" transform="translate(593.341453 154.283006) scale(0.09 -0.09)">
     <defs>
      <path id="DejaVuSans-43" d="M 4122 4306 
L 4122 3641 
Q 3803 3938 3442 4084 
Q 3081 4231 2675 4231 
Q 1875 4231 1450 3742 
Q 1025 3253 1025 2328 
Q 1025 1406 1450 917 
Q 1875 428 2675 428 
Q 3081 428 3442 575 
Q 3803 722 4122 1019 
L 4122 359 
Q 3791 134 3420 21 
Q 3050 -91 2638 -91 
Q 1578 -91 968 557 
Q 359 1206 359 2328 
Q 359 3453 968 4101 
Q 1578 4750 2638 4750 
Q 3056 4750 3426 4639 
Q 3797 4528 4122 4306 
z
" transform="scale(0.015625)"/>
      <path id="DejaVuSans-52" d="M 2841 2188 
Q 3044 2119 3236 1894 
Q 3428 1669 3622 1275 
L 4263 0 
L 3584 0 
L 2988 1197 
Q 2756 1666 2539 1819 
Q 2322 1972 1947 1972 
L 1259 1972 
L 1259 0 
L 628 0 
L 628 4666 
L 2053 4666 
Q 2853 4666 3247 4331 
Q 3641 3997 3641 3322 
Q 3641 2881 3436 2590 
Q 3231 2300 2841 2188 
z
M 1259 4147 
L 1259 2491 
L 2053 2491 
Q 2509 2491 2742 2702 
Q 2975 2913 2975 3322 
Q 2975 3731 2742 3939 
Q 2509 4147 2053 4147 
L 1259 4147 
z
" transform="scale(0.015625)"/>
      <path id="DejaVuSans-55" d="M 556 4666 
L 1191 4666 
L 1191 1831 
Q 1191 1081 1462 751 
Q 1734 422 2344 422 
Q 2950 422 3222 751 
Q 3494 1081 3494 1831 
L 3494 4666 
L 4128 4666 
L 4128 1753 
Q 4128 841 3676 375 
Q 3225 -91 2344 -91 
Q 1459 -91 1007 375 
Q 556 841 556 1753 
L 556 4666 
z
" transform="scale(0.015625)"/>
      <path id="DejaVuSans-44" d="M 1259 4147 
L 1259 519 
L 2022 519 
Q 2988 519 3436 956 
Q 3884 1394 3884 2338 
Q 3884 3275 3436 3711 
Q 2988 4147 2022 4147 
L 1259 4147 
z
M 628 4666 
L 1925 4666 
Q 3281 4666 3915 4102 
Q 4550 3538 4550 2338 
Q 4550 1131 3912 565 
Q 3275 0 1925 0 
L 628 0 
L 628 4666 
z
" transform="scale(0.015625)"/>
     </defs>
     <use xlink:href="#DejaVuSans-43"/>
     <use xlink:href="#DejaVuSans-52" transform="translate(69.824219 0)"/>
     <use xlink:href="#DejaVuSans-55" transform="translate(139.306641 0)"/>
     <use xlink:href="#DejaVuSans-44" transform="translate(212.5 0)"/>
     <use xlink:href="#DejaVuSans-20" transform="translate(289.501953 0)"/>
     <use xlink:href="#DejaVuSans-6b" transform="translate(321.289062 0)"/>
     <use xlink:href="#DejaVuSans-6f" transform="translate(375.574219 0)"/>
     <use xlink:href="#DejaVuSans-6e" transform="translate(436.755859 0)"/>
     <use xlink:href="#DejaVuSans-74" transform="translate(500.134766 0)"/>
     <use xlink:href="#DejaVuSans-65" transform="translate(539.34375 0)"/>
     <use xlink:href="#DejaVuSans-6e" transform="translate(600.867188 0)"/>
    </g>
    <!-- review report -->
    <g style="fill: #c2410c" transform="translate(593.179734 164.361038) scale(0.09 -0.09)">
     <defs>
      <path id="DejaVuSans-76" d="M 191 3500 
L 800 3500 
L 1894 563 
L 2988 3500 
L 3597 3500 
L 2284 0 
L 1503 0 
L 191 3500 
z
" transform="scale(0.015625)"/>
      <path id="DejaVuSans-77" d="M 269 3500 
L 844 3500 
L 1563 769 
L 2278 3500 
L 2956 3500 
L 3675 769 
L 4391 3500 
L 4966 3500 
L 4050 0 
L 3372 0 
L 2619 2869 
L 1863 0 
L 1184 0 
L 269 3500 
z
" transform="scale(0.015625)"/>
     </defs>
     <use xlink:href="#DejaVuSans-72"/>
     <use xlink:href="#DejaVuSans-65" transform="translate(38.863281 0)"/>
     <use xlink:href="#DejaVuSans-76" transform="translate(100.386719 0)"/>
     <use xlink:href="#DejaVuSans-69" transform="translate(159.566406 0)"/>
     <use xlink:href="#DejaVuSans-65" transform="translate(187.349609 0)"/>
     <use xlink:href="#DejaVuSans-77" transform="translate(248.873047 0)"/>
     <use xlink:href="#DejaVuSans-20" transform="translate(330.660156 0)"/>
     <use xlink:href="#DejaVuSans-72" transform="translate(362.447266 0)"/>
     <use xlink:href="#DejaVuSans-65" transform="translate(401.310547 0)"/>
     <use xlink:href="#DejaVuSans-70" transform="translate(462.833984 0)"/>
     <use xlink:href="#DejaVuSans-6f" transform="translate(526.310547 0)"/>
     <use xlink:href="#DejaVuSans-72" transform="translate(587.492188 0)"/>
     <use xlink:href="#DejaVuSans-74" transform="translate(628.605469 0)"/>
    </g>
    <!-- approve draft -->
    <g style="fill: #c2410c" transform="translate(592.662234 174.439069) scale(0.09 -0.09)">
     <use xlink:href="#DejaVuSans-61"/>
     <use xlink:href="#DejaVuSans-70" transform="translate(61.279297 0)"/>
     <use xlink:href="#DejaVuSans-70" transform="translate(124.755859 0)"/>
     <use xlink:href="#DejaVuSans-72" transform="translate(188.232422 0)"/>
     <use xlink:href="#DejaVuSans-6f" transform="translate(227.095703 0)"/>
     <use xlink:href="#DejaVuSans-76" transform="translate(288.277344 0)"/>
     <use xlink:href="#DejaVuSans-65" transform="translate(347.457031 0)"/>
     <use xlink:href="#DejaVuSans-20" transform="translate(408.980469 0)"/>
     <use xlink:href="#DejaVuSans-64" transform="translate(440.767578 0)"/>
     <use xlink:href="#DejaVuSans-72" transform="translate(504.244141 0)"/>
     <use xlink:href="#DejaVuSans-61" transform="translate(545.357422 0)"/>
     <use xlink:href="#DejaVuSans-66" transform="translate(606.636719 0)"/>
     <use xlink:href="#DejaVuSans-74" transform="translate(640.091797 0)"/>
    </g>
   </g>
   <g id="patch_11">
    <path d="M 593.496703 287.165258 
Q 623.234399 289.641342 651.579372 287.280841 
" style="fill: none; stroke: #4b5563; stroke-width: 1.25; stroke-linecap: round"/>
    <path d="M 647.42719 285.619701 
L 651.579372 287.280841 
L 647.759152 289.605903 
" style="fill: none; stroke: #4b5563; stroke-width: 1.25; stroke-linecap: round"/>
   </g>
   <g id="text_11">
    <g id="patch_12">
     <path d="M 577.464891 352.026788 
L 668.999109 352.026788 
Q 670.079109 352.026788 670.079109 350.946788 
L 670.079109 322.080413 
Q 670.079109 321.000413 668.999109 321.000413 
L 577.464891 321.000413 
Q 576.384891 321.000413 576.384891 322.080413 
L 576.384891 350.946788 
Q 576.384891 352.026788 577.464891 352.026788 
z
" style="fill: #ffffff; opacity: 0.88"/>
    </g>
    <!-- statistik platform -->
    <g style="fill: #4b5563" transform="translate(584.836453 328.919006) scale(0.09 -0.09)">
     <use xlink:href="#DejaVuSans-73"/>
     <use xlink:href="#DejaVuSans-74" transform="translate(52.099609 0)"/>
     <use xlink:href="#DejaVuSans-61" transform="translate(91.308594 0)"/>
     <use xlink:href="#DejaVuSans-74" transform="translate(152.587891 0)"/>
     <use xlink:href="#DejaVuSans-69" transform="translate(191.796875 0)"/>
     <use xlink:href="#DejaVuSans-73" transform="translate(219.580078 0)"/>
     <use xlink:href="#DejaVuSans-74" transform="translate(271.679688 0)"/>
     <use xlink:href="#DejaVuSans-69" transform="translate(310.888672 0)"/>
     <use xlink:href="#DejaVuSans-6b" transform="translate(338.671875 0)"/>
     <use xlink:href="#DejaVuSans-20" transform="translate(396.582031 0)"/>
     <use xlink:href="#DejaVuSans-70" transform="translate(428.369141 0)"/>
     <use xlink:href="#DejaVuSans-6c" transform="translate(491.845703 0)"/>
     <use xlink:href="#DejaVuSans-61" transform="translate(519.628906 0)"/>
     <use xlink:href="#DejaVuSans-74" transform="translate(580.908203 0)"/>
     <use xlink:href="#DejaVuSans-66" transform="translate(620.117188 0)"/>
     <use xlink:href="#DejaVuSans-6f" transform="translate(655.322266 0)"/>
     <use xlink:href="#DejaVuSans-72" transform="translate(716.503906 0)"/>
     <use xlink:href="#DejaVuSans-6d" transform="translate(755.867188 0)"/>
    </g>
    <!-- data submission -->
    <g style="fill: #4b5563" transform="translate(586.435359 338.997038) scale(0.09 -0.09)">
     <use xlink:href="#DejaVuSans-64"/>
     <use xlink:href="#DejaVuSans-61" transform="translate(63.476562 0)"/>
     <use xlink:href="#DejaVuSans-74" transform="translate(124.755859 0)"/>
     <use xlink:href="#DejaVuSans-61" transform="translate(163.964844 0)"/>
     <use xlink:href="#DejaVuSans-20" transform="translate(225.244141 0)"/>
     <use xlink:href="#DejaVuSans-73" transform="translate(257.03125 0)"/>
     <use xlink:href="#DejaVuSans-75" transform="translate(309.130859 0)"/>
     <use xlink:href="#DejaVuSans-62" transform="translate(372.509766 0)"/>
     <use xlink:href="#DejaVuSans-6d" transform="translate(435.986328 0)"/>
     <use xlink:href="#DejaVuSans-69" transform="translate(533.398438 0)"/>
     <use xlink:href="#DejaVuSans-73" transform="translate(561.181641 0)"/>
     <use xlink:href="#DejaVuSans-73" transform="translate(613.28125 0)"/>
     <use xlink:href="#DejaVuSans-69" transform="translate(665.380859 0)"/>
     <use xlink:href="#DejaVuSans-6f" transform="translate(693.164062 0)"/>
     <use xlink:href="#DejaVuSans-6e" transform="translate(754.345703 0)"/>
    </g>
    <!-- daftar report &amp; draft -->
    <g style="fill: #4b5563" transform="translate(577.464891 349.075069) scale(0.09 -0.09)">
     <defs>
      <path id="DejaVuSans-26" d="M 1556 2509 
Q 1272 2256 1139 2004 
Q 1006 1753 1006 1478 
Q 1006 1022 1337 719 
Q 1669 416 2169 416 
Q 2466 416 2725 514 
Q 2984 613 3213 813 
L 1556 2509 
z
M 1997 2859 
L 3584 1234 
Q 3769 1513 3872 1830 
Q 3975 2147 3994 2503 
L 4575 2503 
Q 4538 2091 4375 1687 
Q 4213 1284 3922 891 
L 4794 0 
L 4006 0 
L 3559 459 
Q 3234 181 2878 45 
Q 2522 -91 2113 -91 
Q 1359 -91 881 339 
Q 403 769 403 1441 
Q 403 1841 612 2192 
Q 822 2544 1241 2853 
Q 1091 3050 1012 3245 
Q 934 3441 934 3628 
Q 934 4134 1281 4442 
Q 1628 4750 2203 4750 
Q 2463 4750 2720 4694 
Q 2978 4638 3244 4525 
L 3244 3956 
Q 2972 4103 2725 4179 
Q 2478 4256 2266 4256 
Q 1938 4256 1733 4082 
Q 1528 3909 1528 3634 
Q 1528 3475 1620 3314 
Q 1713 3153 1997 2859 
z
" transform="scale(0.015625)"/>
     </defs>
     <use xlink:href="#DejaVuSans-64"/>
     <use xlink:href="#DejaVuSans-61" transform="translate(63.476562 0)"/>
     <use xlink:href="#DejaVuSans-66" transform="translate(124.755859 0)"/>
     <use xlink:href="#DejaVuSans-74" transform="translate(158.210938 0)"/>
     <use xlink:href="#DejaVuSans-61" transform="translate(197.419922 0)"/>
     <use xlink:href="#DejaVuSans-72" transform="translate(258.699219 0)"/>
     <use xlink:href="#DejaVuSans-20" transform="translate(299.8125 0)"/>
     <use xlink:href="#DejaVuSans-72" transform="translate(331.599609 0)"/>
     <use xlink:href="#DejaVuSans-65" transform="translate(370.462891 0)"/>
     <use xlink:href="#DejaVuSans-70" transform="translate(431.986328 0)"/>
     <use xlink:href="#DejaVuSans-6f" transform="translate(495.462891 0)"/>
     <use xlink:href="#DejaVuSans-72" transform="translate(556.644531 0)"/>
     <use xlink:href="#DejaVuSans-74" transform="translate(597.757812 0)"/>
     <use xlink:href="#DejaVuSans-20" transform="translate(636.966797 0)"/>
     <use xlink:href="#DejaVuSans-26" transform="translate(668.753906 0)"/>
     <use xlink:href="#DejaVuSans-20" transform="translate(746.732422 0)"/>
     <use xlink:href="#DejaVuSans-64" transform="translate(778.519531 0)"/>
     <use xlink:href="#DejaVuSans-72" transform="translate(841.996094 0)"/>
     <use xlink:href="#DejaVuSans-61" transform="translate(883.109375 0)"/>
     <use xlink:href="#DejaVuSans-66" transform="translate(944.388672 0)"/>
     <use xlink:href="#DejaVuSans-74" transform="translate(977.84375 0)"/>
    </g>
   </g>
   <g id="text_12">
    <!-- Entitas eksternal: User dan Admin/Reviewer. Sistem pusat: CTFForge Learning Platform. -->
    <g style="fill: #6b7280" transform="translate(256.022578 466.2432) scale(0.09 -0.09)">
     <defs>
      <path id="DejaVuSans-45" d="M 628 4666 
L 3578 4666 
L 3578 4134 
L 1259 4134 
L 1259 2753 
L 3481 2753 
L 3481 2222 
L 1259 2222 
L 1259 531 
L 3634 531 
L 3634 0 
L 628 0 
L 628 4666 
z
" transform="scale(0.015625)"/>
      <path id="DejaVuSans-3a" d="M 750 794 
L 1409 794 
L 1409 0 
L 750 0 
L 750 794 
z
M 750 3309 
L 1409 3309 
L 1409 2516 
L 750 2516 
L 750 3309 
z
" transform="scale(0.015625)"/>
      <path id="DejaVuSans-41" d="M 2188 4044 
L 1331 1722 
L 3047 1722 
L 2188 4044 
z
M 1831 4666 
L 2547 4666 
L 4325 0 
L 3669 0 
L 3244 1197 
L 1141 1197 
L 716 0 
L 50 0 
L 1831 4666 
z
" transform="scale(0.015625)"/>
      <path id="DejaVuSans-2e" d="M 684 794 
L 1344 794 
L 1344 0 
L 684 0 
L 684 794 
z
" transform="scale(0.015625)"/>
      <path id="DejaVuSans-53" d="M 3425 4513 
L 3425 3897 
Q 3066 4069 2747 4153 
Q 2428 4238 2131 4238 
Q 1616 4238 1336 4038 
Q 1056 3838 1056 3469 
Q 1056 3159 1242 3001 
Q 1428 2844 1947 2747 
L 2328 2669 
Q 3034 2534 3370 2195 
Q 3706 1856 3706 1288 
Q 3706 609 3251 259 
Q 2797 -91 1919 -91 
Q 1588 -91 1214 -16 
Q 841 59 441 206 
L 441 856 
Q 825 641 1194 531 
Q 1563 422 1919 422 
Q 2459 422 2753 634 
Q 3047 847 3047 1241 
Q 3047 1584 2836 1778 
Q 2625 1972 2144 2069 
L 1759 2144 
Q 1053 2284 737 2584 
Q 422 2884 422 3419 
Q 422 4038 858 4394 
Q 1294 4750 2059 4750 
Q 2388 4750 2728 4690 
Q 3069 4631 3425 4513 
z
" transform="scale(0.015625)"/>
      <path id="DejaVuSans-54" d="M -19 4666 
L 3928 4666 
L 3928 4134 
L 2272 4134 
L 2272 0 
L 1638 0 
L 1638 4134 
L -19 4134 
L -19 4666 
z
" transform="scale(0.015625)"/>
      <path id="DejaVuSans-46" d="M 628 4666 
L 3309 4666 
L 3309 4134 
L 1259 4134 
L 1259 2759 
L 3109 2759 
L 3109 2228 
L 1259 2228 
L 1259 0 
L 628 0 
L 628 4666 
z
" transform="scale(0.015625)"/>
     </defs>
     <use xlink:href="#DejaVuSans-45"/>
     <use xlink:href="#DejaVuSans-6e" transform="translate(63.183594 0)"/>
     <use xlink:href="#DejaVuSans-74" transform="translate(126.5625 0)"/>
     <use xlink:href="#DejaVuSans-69" transform="translate(165.771484 0)"/>
     <use xlink:href="#DejaVuSans-74" transform="translate(193.554688 0)"/>
     <use xlink:href="#DejaVuSans-61" transform="translate(232.763672 0)"/>
     <use xlink:href="#DejaVuSans-73" transform="translate(294.042969 0)"/>
     <use xlink:href="#DejaVuSans-20" transform="translate(346.142578 0)"/>
     <use xlink:href="#DejaVuSans-65" transform="translate(377.929688 0)"/>
     <use xlink:href="#DejaVuSans-6b" transform="translate(439.453125 0)"/>
     <use xlink:href="#DejaVuSans-73" transform="translate(497.363281 0)"/>
     <use xlink:href="#DejaVuSans-74" transform="translate(549.462891 0)"/>
     <use xlink:href="#DejaVuSans-65" transform="translate(588.671875 0)"/>
     <use xlink:href="#DejaVuSans-72" transform="translate(650.195312 0)"/>
     <use xlink:href="#DejaVuSans-6e" transform="translate(689.558594 0)"/>
     <use xlink:href="#DejaVuSans-61" transform="translate(752.9375 0)"/>
     <use xlink:href="#DejaVuSans-6c" transform="translate(814.216797 0)"/>
     <use xlink:href="#DejaVuSans-3a" transform="translate(842 0)"/>
     <use xlink:href="#DejaVuSans-20" transform="translate(875.691406 0)"/>
     <use xlink:href="#DejaVuSans-55" transform="translate(907.478516 0)"/>
     <use xlink:href="#DejaVuSans-73" transform="translate(980.671875 0)"/>
     <use xlink:href="#DejaVuSans-65" transform="translate(1032.771484 0)"/>
     <use xlink:href="#DejaVuSans-72" transform="translate(1094.294922 0)"/>
     <use xlink:href="#DejaVuSans-20" transform="translate(1135.408203 0)"/>
     <use xlink:href="#DejaVuSans-64" transform="translate(1167.195312 0)"/>
     <use xlink:href="#DejaVuSans-61" transform="translate(1230.671875 0)"/>
     <use xlink:href="#DejaVuSans-6e" transform="translate(1291.951172 0)"/>
     <use xlink:href="#DejaVuSans-20" transform="translate(1355.330078 0)"/>
     <use xlink:href="#DejaVuSans-41" transform="translate(1387.117188 0)"/>
     <use xlink:href="#DejaVuSans-64" transform="translate(1453.775391 0)"/>
     <use xlink:href="#DejaVuSans-6d" transform="translate(1517.251953 0)"/>
     <use xlink:href="#DejaVuSans-69" transform="translate(1614.664062 0)"/>
     <use xlink:href="#DejaVuSans-6e" transform="translate(1642.447266 0)"/>
     <use xlink:href="#DejaVuSans-2f" transform="translate(1705.826172 0)"/>
     <use xlink:href="#DejaVuSans-52" transform="translate(1739.517578 0)"/>
     <use xlink:href="#DejaVuSans-65" transform="translate(1804.5 0)"/>
     <use xlink:href="#DejaVuSans-76" transform="translate(1866.023438 0)"/>
     <use xlink:href="#DejaVuSans-69" transform="translate(1925.203125 0)"/>
     <use xlink:href="#DejaVuSans-65" transform="translate(1952.986328 0)"/>
     <use xlink:href="#DejaVuSans-77" transform="translate(2014.509766 0)"/>
     <use xlink:href="#DejaVuSans-65" transform="translate(2096.296875 0)"/>
     <use xlink:href="#DejaVuSans-72" transform="translate(2157.820312 0)"/>
     <use xlink:href="#DejaVuSans-2e" transform="translate(2189.808594 0)"/>
     <use xlink:href="#DejaVuSans-20" transform="translate(2221.595703 0)"/>
     <use xlink:href="#DejaVuSans-53" transform="translate(2253.382812 0)"/>
     <use xlink:href="#DejaVuSans-69" transform="translate(2316.859375 0)"/>
     <use xlink:href="#DejaVuSans-73" transform="translate(2344.642578 0)"/>
     <use xlink:href="#DejaVuSans-74" transform="translate(2396.742188 0)"/>
     <use xlink:href="#DejaVuSans-65" transform="translate(2435.951172 0)"/>
     <use xlink:href="#DejaVuSans-6d" transform="translate(2497.474609 0)"/>
     <use xlink:href="#DejaVuSans-20" transform="translate(2594.886719 0)"/>
     <use xlink:href="#DejaVuSans-70" transform="translate(2626.673828 0)"/>
     <use xlink:href="#DejaVuSans-75" transform="translate(2690.150391 0)"/>
     <use xlink:href="#DejaVuSans-73" transform="translate(2753.529297 0)"/>
     <use xlink:href="#DejaVuSans-61" transform="translate(2805.628906 0)"/>
     <use xlink:href="#DejaVuSans-74" transform="translate(2866.908203 0)"/>
     <use xlink:href="#DejaVuSans-3a" transform="translate(2906.117188 0)"/>
     <use xlink:href="#DejaVuSans-20" transform="translate(2939.808594 0)"/>
     <use xlink:href="#DejaVuSans-43" transform="translate(2971.595703 0)"/>
     <use xlink:href="#DejaVuSans-54" transform="translate(3041.419922 0)"/>
     <use xlink:href="#DejaVuSans-46" transform="translate(3102.503906 0)"/>
     <use xlink:href="#DejaVuSans-46" transform="translate(3160.023438 0)"/>
     <use xlink:href="#DejaVuSans-6f" transform="translate(3213.917969 0)"/>
     <use xlink:href="#DejaVuSans-72" transform="translate(3275.099609 0)"/>
     <use xlink:href="#DejaVuSans-67" transform="translate(3314.462891 0)"/>
     <use xlink:href="#DejaVuSans-65" transform="translate(3377.939453 0)"/>
     <use xlink:href="#DejaVuSans-20" transform="translate(3439.462891 0)"/>
     <use xlink:href="#DejaVuSans-4c" transform="translate(3471.25 0)"/>
     <use xlink:href="#DejaVuSans-65" transform="translate(3525.212891 0)"/>
     <use xlink:href="#DejaVuSans-61" transform="translate(3586.736328 0)"/>
     <use xlink:href="#DejaVuSans-72" transform="translate(3648.015625 0)"/>
     <use xlink:href="#DejaVuSans-6e" transform="translate(3687.378906 0)"/>
     <use xlink:href="#DejaVuSans-69" transform="translate(3750.757812 0)"/>
     <use xlink:href="#DejaVuSans-6e" transform="translate(3778.541016 0)"/>
     <use xlink:href="#DejaVuSans-67" transform="translate(3841.919922 0)"/>
     <use xlink:href="#DejaVuSans-20" transform="translate(3905.396484 0)"/>
     <use xlink:href="#DejaVuSans-50" transform="translate(3937.183594 0)"/>
     <use xlink:href="#DejaVuSans-6c" transform="translate(3997.486328 0)"/>
     <use xlink:href="#DejaVuSans-61" transform="translate(4025.269531 0)"/>
     <use xlink:href="#DejaVuSans-74" transform="translate(4086.548828 0)"/>
     <use xlink:href="#DejaVuSans-66" transform="translate(4125.757812 0)"/>
     <use xlink:href="#DejaVuSans-6f" transform="translate(4160.962891 0)"/>
     <use xlink:href="#DejaVuSans-72" transform="translate(4222.144531 0)"/>
     <use xlink:href="#DejaVuSans-6d" transform="translate(4261.507812 0)"/>
     <use xlink:href="#DejaVuSans-2e" transform="translate(4358.919922 0)"/>
    </g>
   </g>
  </g>
 </g>
 <defs>
  <clipPath id="peca66eb62a">
   <rect x="7.2" y="7.2" width="892.8" height="498.96"/>
  </clipPath>
 </defs>
</svg>
